<svg width="2699" height="2549" viewBox="0 0 2699 2549" fill="none" xmlns="http://www.w3.org/2000/svg">
<path d="M197.849 1177.18C252.916 1122.34 342.478 1129.33 408.795 1164.84C475.17 1200.27 527.505 1258.23 589.378 1301.49C755.221 1417.34 991.272 1412.55 1157.79 1289.95C1211.15 1250.63 1257.11 1201.14 1310.18 1161.37C1363.25 1121.61 1427.14 1091.48 1491.04 1099.56C1582.94 1111.24 1648.08 1197.3 1688.23 1284.19C1728.38 1371.08 1755.33 1467.78 1817.81 1538.44C1899.95 1631.26 2031.06 1662.06 2152.75 1648.93C2274.36 1635.74 2389.72 1584.38 2502.81 1533.63" stroke="#048ACD" stroke-opacity="0.2" stroke-miterlimit="10"/>
<path d="M198.402 1168.54C254.305 1114.77 343.645 1121.72 410.217 1157.05C438.979 1172.28 465.204 1191.84 490.454 1212.79C523.605 1240.25 555.291 1269.97 589.768 1295.18C660.058 1346.65 742.414 1377.03 828.363 1384.29C894.707 1389.93 962.02 1383.19 1025.85 1363.28C1071.41 1349.25 1114.8 1327.86 1154.52 1299.5C1172.31 1286.8 1189.32 1272.95 1206.03 1258.65C1240.03 1229.58 1272.78 1198.8 1308.68 1172.77C1349.42 1143.3 1396.19 1119.87 1444.44 1115.42C1459.48 1113.98 1474.54 1114.26 1489.55 1116.7C1552.49 1127.04 1601.54 1172.93 1640.2 1228.64C1656.89 1252.76 1671.74 1278.64 1684.45 1304.25C1698.72 1332.89 1711.8 1362.17 1725.25 1390.74C1751.58 1446.97 1778.76 1500.76 1819.92 1542.24C1846.73 1569.16 1877.95 1588.91 1912.56 1603.11C1982.88 1632.03 2068.01 1637.5 2150.21 1626.04C2172.78 1622.91 2195.15 1618.66 2217.51 1613.56C2316.83 1590.88 2413.74 1552.12 2507.12 1516.99" stroke="#048ACD" stroke-opacity="0.2" stroke-miterlimit="10"/>
<path d="M199.012 1159.81C255.833 1107.17 344.928 1113.96 411.753 1149.09C440.655 1164.3 466.88 1183.86 492.155 1204.95C525.191 1232.57 556.533 1262.78 590.355 1288.75C659.335 1341.75 739.546 1375.02 825.037 1384.16C891.07 1391.29 957.835 1386.73 1021.83 1369.37C1067.61 1356.96 1111.34 1336.66 1151.46 1308.95C1169.38 1296.59 1186.55 1282.85 1203.51 1268.72C1237.85 1240.02 1271.07 1209.44 1307.23 1184.08C1348.38 1155.26 1395.25 1133.25 1443.63 1130.72C1458.58 1129.94 1473.43 1130.69 1488.18 1133.68C1549.93 1146.23 1596.92 1193.5 1635.44 1249.23C1652.21 1273.4 1667.45 1299.07 1680.93 1324.12C1696.01 1352.11 1710.2 1380.33 1724.66 1407.29C1752.89 1460.46 1781.44 1509.84 1822.42 1545.81C1848.95 1569.13 1878.98 1584.64 1912.56 1595.42C1980.74 1617.11 2065.21 1617.24 2148.09 1603.08C2170.81 1599.2 2193.58 1594.38 2216.26 1589C2317.47 1564.85 2417.44 1529.2 2511.83 1500.15" stroke="#048ACD" stroke-opacity="0.2" stroke-miterlimit="10"/>
<path d="M199.622 1151.09C257.362 1099.58 346.211 1106.19 413.232 1141.22C442.191 1156.35 468.637 1175.94 493.798 1197.19C526.744 1225.11 557.578 1255.7 590.885 1282.41C658.637 1336.99 736.538 1373.04 821.653 1384.12C887.376 1392.74 953.676 1390.41 1017.76 1375.55C1063.83 1364.81 1107.81 1345.54 1148.39 1318.4C1166.5 1306.29 1183.8 1292.89 1201.06 1278.84C1235.76 1250.51 1269.45 1220.14 1305.93 1195.37C1347.47 1167.19 1394.37 1146.54 1442.96 1145.99C1457.8 1145.87 1472.45 1147.09 1486.8 1150.65C1547.28 1165.37 1592.25 1214.14 1630.68 1269.82C1647.48 1294.13 1663.09 1319.45 1677.33 1343.93C1693.23 1371.27 1708.44 1398.38 1723.93 1423.86C1754.17 1473.8 1784.07 1518.99 1824.78 1549.42C1851.17 1569.09 1879.91 1580.52 1912.34 1587.71C1978.27 1602.32 2062.25 1596.87 2145.66 1580.03C2168.59 1575.32 2191.57 1570.03 2214.61 1564.31C2317.64 1538.61 2420.67 1506.08 2516.17 1483.3" stroke="#048ACD" stroke-opacity="0.2" stroke-miterlimit="10"/>
<path d="M200.232 1142.36C258.832 1092.07 347.493 1098.42 414.793 1133.4C443.891 1148.5 470.394 1168.01 495.465 1189.57C528.297 1217.66 558.787 1248.74 591.438 1276.21C657.937 1332.23 733.637 1371.26 818.155 1384.23C883.649 1394.4 949.425 1394.39 1013.48 1381.84C1059.93 1372.83 1104.09 1354.53 1144.99 1327.98C1163.22 1316.2 1180.77 1302.97 1198.2 1289.04C1233.31 1261 1267.35 1230.99 1304.28 1206.79C1346.18 1179.34 1393.21 1159.89 1441.89 1161.47C1456.7 1161.94 1471.03 1163.79 1485.17 1167.82C1544.46 1184.76 1587.24 1234.92 1625.75 1290.65C1642.49 1315.05 1658.63 1340.13 1673.5 1364.06C1690.16 1390.85 1706.53 1416.82 1722.89 1440.7C1755.03 1487.58 1786.44 1528.34 1826.75 1553.23C1852.94 1569.35 1880.5 1576.54 1911.87 1580.18C1975.68 1587.7 2058.9 1576.71 2143 1557.3C2166.17 1551.91 2189.47 1545.99 2212.88 1539.91C2317.66 1512.75 2423.87 1483.18 2520.34 1466.69" stroke="#048ACD" stroke-opacity="0.2" stroke-miterlimit="10"/>
<path d="M200.843 1133.64C260.361 1084.47 348.776 1090.66 416.272 1125.53C445.428 1140.55 472.013 1160.12 497.108 1181.81C529.825 1210.06 559.972 1241.64 591.968 1269.87C657.157 1327.41 730.687 1369.19 814.772 1384.18C879.955 1395.84 945.208 1398.16 1009.35 1388.1C1056.09 1380.76 1100.56 1363.41 1141.86 1337.5C1160.29 1325.99 1178.03 1313.01 1195.56 1299.28C1231.02 1271.6 1265.53 1241.8 1302.73 1218.27C1345.02 1191.47 1392.08 1173.38 1440.97 1176.93C1455.59 1178.01 1469.8 1180.38 1483.6 1184.9C1541.57 1204.08 1582.42 1255.59 1620.74 1311.43C1637.56 1335.88 1654.1 1360.75 1669.72 1384.12C1687.2 1410.25 1704.6 1435.11 1722.05 1457.44C1756.14 1501.17 1789.12 1537.78 1829 1557C1855.07 1569.62 1881.28 1572.45 1911.63 1572.68C1973.37 1573.03 2055.85 1556.64 2140.62 1534.53C2163.95 1528.39 2187.59 1521.98 2211.37 1515.55C2317.96 1486.85 2427.32 1460.46 2524.81 1450.17" stroke="#048ACD" stroke-opacity="0.2" stroke-miterlimit="10"/>
<path d="M201.313 1124.94C261.75 1076.9 349.861 1082.99 417.612 1117.68C446.907 1132.68 473.631 1152.22 498.612 1174.08C531.239 1202.63 560.878 1234.58 592.358 1263.55C656.376 1322.6 727.622 1367.29 811.249 1384.16C876.065 1397.39 940.934 1402 1005.13 1394.3C1052.25 1388.69 1096.89 1372.32 1138.6 1347.06C1157.13 1335.74 1175.06 1323.01 1192.92 1309.51C1228.73 1282.21 1263.79 1252.66 1301.22 1229.67C1343.86 1203.6 1391.06 1186.7 1440.1 1192.31C1454.68 1193.97 1468.63 1196.88 1482.16 1201.96C1538.86 1223.3 1577.61 1276.26 1615.92 1332.1C1632.77 1356.69 1649.76 1381.26 1666.06 1404.01C1684.36 1429.5 1702.78 1453.24 1721.26 1474.1C1757.25 1514.76 1792.05 1547.02 1831.3 1560.69C1857.4 1569.78 1882.2 1568.34 1911.41 1564.97C1970.95 1558.16 2052.89 1536.27 2138.28 1511.53C2161.82 1504.57 2185.8 1497.67 2209.89 1490.96C2318.37 1460.78 2430.72 1437.45 2529.29 1433.29" stroke="#048ACD" stroke-opacity="0.2" stroke-miterlimit="10"/>
<path d="M201.924 1116.21C263.221 1069.39 351.144 1075.23 419.148 1109.73C448.5 1124.64 475.307 1144.24 500.255 1166.32C532.767 1195.04 562.062 1227.48 592.888 1257.21C655.596 1317.78 724.696 1365.37 807.865 1384.11C872.371 1398.84 936.798 1405.82 1001.06 1400.48C1048.47 1396.54 1093.37 1381.2 1135.47 1356.59C1154.14 1345.6 1172.31 1333.05 1190.33 1319.66C1226.56 1292.64 1262.02 1263.39 1299.78 1240.98C1342.82 1215.56 1390.1 1199.94 1439.23 1207.69C1453.63 1209.95 1467.45 1213.39 1480.65 1218.96C1536.16 1242.52 1572.79 1296.94 1611.03 1352.72C1627.87 1377.31 1645.33 1401.72 1662.32 1423.85C1681.35 1448.63 1700.96 1471.37 1720.45 1490.61C1758.4 1528.13 1795.01 1556.05 1833.5 1564.18C1859.76 1569.73 1882.94 1563.97 1911.11 1557.19C1968.6 1543.21 2049.79 1515.92 2135.85 1488.48C2159.63 1480.83 2183.79 1473.32 2208.33 1466.32C2318.62 1434.6 2434.17 1414.36 2533.72 1416.5" stroke="#048ACD" stroke-opacity="0.2" stroke-miterlimit="10"/>
<path d="M202.534 1107.49C264.749 1061.79 352.426 1067.46 420.709 1101.91C450.2 1116.8 477.146 1136.37 501.979 1158.62C534.32 1187.58 563.271 1220.52 593.417 1250.87C654.815 1312.96 721.689 1363.39 804.425 1384.15C868.619 1400.36 932.524 1409.66 996.922 1406.74C1044.72 1404.53 1089.78 1390.17 1132.35 1366.12C1151.2 1355.38 1169.56 1343.09 1187.83 1329.87C1224.41 1303.22 1260.34 1274.17 1298.42 1252.35C1341.86 1227.57 1389.14 1213.17 1438.5 1223.04C1452.86 1225.88 1466.42 1229.87 1479.29 1236.07C1533.54 1261.8 1568.11 1317.58 1606.29 1373.44C1623.16 1398.18 1641.08 1422.29 1658.76 1443.94C1678.56 1468.15 1699.25 1489.7 1719.77 1507.47C1759.62 1541.92 1798.32 1565.45 1835.91 1568.06C1862.39 1569.98 1883.97 1560.06 1910.94 1549.75C1966.29 1528.54 2046.83 1495.91 2133.47 1465.71C2157.4 1457.31 2181.97 1449.23 2206.82 1441.96C2318.92 1408.69 2437.53 1391.58 2538.11 1399.92" stroke="#048ACD" stroke-opacity="0.2" stroke-miterlimit="10"/>
<path d="M203.144 1098.76C266.278 1054.2 353.709 1059.69 422.188 1094.04C451.737 1108.84 478.822 1128.39 503.622 1150.86C535.849 1179.99 564.374 1213.36 593.889 1244.61C654.117 1308.2 718.706 1361.55 800.984 1384.18C864.868 1401.89 928.331 1413.57 992.731 1413.08C1040.84 1412.68 1086.14 1399.21 1129.11 1375.81C1148.09 1365.41 1166.62 1353.23 1185.13 1340.19C1222.14 1313.96 1258.46 1285.06 1296.8 1263.91C1340.58 1239.86 1388.01 1226.66 1437.46 1238.66C1451.64 1242.11 1465.02 1246.71 1477.61 1253.32C1530.58 1281.21 1563.13 1338.5 1601.22 1394.3C1618.18 1419.09 1636.4 1442.94 1654.85 1464.02C1675.47 1487.59 1697.18 1508.02 1718.71 1524.17C1760.51 1555.48 1801.26 1574.33 1837.93 1571.79C1864.61 1569.94 1884.53 1555.93 1910.53 1542.14C1963.81 1513.76 2043.59 1475.58 2130.93 1442.82C2155.1 1433.73 2179.93 1425.1 2205.2 1417.4C2319.11 1382.59 2440.87 1368.66 2542.53 1383.12" stroke="#048ACD" stroke-opacity="0.2" stroke-miterlimit="10"/>
<path d="M203.755 1090.04C267.724 1046.55 354.934 1052.01 423.667 1086.16C453.355 1100.94 480.44 1120.49 505.183 1143.04C537.32 1172.47 565.476 1206.19 594.337 1238.21C653.254 1303.33 715.674 1359.43 797.519 1384.08C861.174 1403.33 924.139 1417.47 988.572 1419.21C1037.06 1420.53 1082.53 1408.04 1125.96 1385.2C1145.13 1375.06 1163.84 1363.13 1182.53 1350.2C1219.94 1324.26 1256.67 1295.64 1295.33 1275.09C1339.52 1251.69 1387 1239.62 1436.62 1253.82C1450.76 1257.85 1463.88 1263 1476.21 1270.15C1527.94 1300.35 1558.4 1358.87 1596.38 1414.84C1613.28 1439.71 1632.03 1463.32 1651.16 1483.77C1672.6 1506.69 1695.28 1526.09 1717.89 1540.69C1761.51 1568.87 1804.56 1582.87 1840.13 1575.28C1867.2 1569.56 1885.35 1551.63 1910.15 1534.31C1961.29 1498.69 2040.41 1455.18 2128.42 1419.71C2152.8 1409.8 2177.83 1400.7 2203.56 1392.7C2319.36 1356.41 2444.11 1345.53 2546.87 1366.27" stroke="#048ACD" stroke-opacity="0.2" stroke-miterlimit="10"/>
<path d="M204.308 1081.39C269.138 1039.11 356.159 1044.32 425.089 1078.37C454.834 1093.07 482.141 1112.65 506.712 1135.45C538.734 1165.04 566.489 1199.34 594.752 1232.04C652.441 1298.73 712.634 1357.67 794.021 1384.19C857.308 1405.02 919.889 1421.45 984.381 1425.55C1033.11 1428.63 1078.89 1417.08 1122.72 1394.89C1142.02 1385.09 1160.98 1373.33 1179.91 1360.57C1217.68 1335 1254.82 1306.67 1293.94 1286.68C1338.47 1264.01 1386.01 1253.08 1435.94 1269.45C1449.96 1274.01 1462.9 1279.76 1474.96 1287.46C1525.42 1319.82 1553.86 1379.85 1591.76 1435.76C1608.68 1460.77 1627.88 1484.09 1647.72 1504.06C1669.97 1526.33 1693.75 1544.67 1717.32 1557.73C1762.84 1582.86 1807.94 1591.82 1842.59 1579.44C1869.8 1569.67 1886.35 1547.93 1910.17 1527.13C1959.17 1484.27 2037.63 1435.42 2126.25 1397.33C2150.79 1386.67 2176.23 1377 2202.18 1368.67C2319.73 1330.92 2447.66 1323 2551.4 1350.03" stroke="#048ACD" stroke-opacity="0.2" stroke-miterlimit="10"/>
<path d="M204.918 1072.67C270.666 1031.52 357.442 1036.56 426.707 1070.47C456.592 1085.15 483.955 1104.65 508.494 1127.67C540.401 1157.42 567.731 1192.15 595.42 1225.67C651.857 1293.81 709.847 1355.72 790.637 1384.15C853.614 1406.47 915.696 1425.35 980.222 1431.67C1029.33 1436.48 1075.28 1425.91 1119.51 1404.36C1139 1394.81 1158.15 1383.31 1177.24 1370.67C1215.37 1345.47 1252.97 1317.34 1292.35 1298.02C1337.2 1275.94 1384.88 1266.21 1434.93 1284.85C1448.85 1290.07 1461.59 1296.29 1473.31 1304.49C1522.5 1339.01 1548.82 1400.49 1586.72 1456.4C1603.72 1481.47 1623.32 1504.57 1643.84 1523.92C1666.85 1545.63 1691.71 1562.77 1716.37 1574.28C1763.79 1596.33 1810.92 1600.13 1844.73 1583.01C1872.14 1569.11 1887.03 1543.65 1909.73 1519.38C1956.59 1469.29 2034.45 1415.01 2123.69 1374.3C2148.46 1362.95 2174.16 1352.73 2200.48 1344.05C2319.84 1304.76 2450.92 1300.02 2555.68 1333.26" stroke="#048ACD" stroke-opacity="0.2" stroke-miterlimit="10"/>
<path d="M205.446 1063.89C272.113 1023.87 358.56 1028.68 428.105 1062.54C458.046 1077.13 485.574 1096.75 510.055 1119.85C541.872 1149.91 568.833 1184.99 595.868 1219.27C650.995 1288.94 706.758 1353.68 787.172 1384.04C849.838 1407.85 911.479 1429.11 976.006 1437.87C1025.43 1444.49 1071.62 1434.81 1116.3 1413.84C1135.99 1404.54 1155.24 1393.23 1174.66 1380.82C1213.19 1355.9 1251.21 1328.06 1290.91 1309.33C1336.1 1287.98 1383.9 1279.31 1434.12 1300.15C1447.92 1305.89 1460.42 1312.8 1471.87 1321.54C1519.88 1358.29 1544.14 1421.14 1581.99 1477.13C1598.93 1502.28 1619.06 1525.14 1640.26 1543.87C1664.09 1564.93 1689.92 1581.04 1715.67 1590.99C1764.9 1609.92 1813.92 1608.57 1847.12 1586.76C1874.51 1568.69 1887.95 1539.53 1909.68 1511.77C1954.4 1454.46 2031.52 1394.78 2121.42 1351.37C2146.41 1339.19 2172.45 1328.48 2199.09 1319.53C2320.34 1278.75 2454.4 1277.07 2560.24 1316.44" stroke="#048ACD" stroke-opacity="0.2" stroke-miterlimit="10"/>
<path d="M206.057 1055.16C273.584 1016.35 359.843 1020.91 429.584 1054.67C459.665 1069.24 487.249 1088.77 511.641 1112.17C543.343 1142.4 569.821 1177.99 596.258 1212.95C650.157 1284.2 703.693 1351.78 783.649 1384.02C846.005 1409.32 907.229 1433.1 971.79 1444.08C1021.54 1452.51 1067.95 1443.72 1113.04 1423.39C1132.85 1414.43 1152.35 1403.29 1171.88 1391.08C1210.76 1366.53 1249.25 1338.9 1289.27 1320.75C1334.86 1300.05 1382.72 1292.51 1433.11 1315.55C1446.87 1321.88 1459.1 1329.33 1470.22 1338.57C1516.96 1377.48 1539.11 1441.78 1576.95 1497.77C1593.98 1522.98 1614.42 1545.57 1636.46 1563.79C1661.03 1584.14 1687.96 1599.19 1714.71 1607.53C1765.79 1623.48 1816.6 1616.79 1849.18 1590.27C1876.55 1568.05 1888.63 1535.25 1909.16 1503.97C1951.68 1439.5 2028.2 1374.4 2118.77 1328.28C2144 1315.42 2170.22 1304.1 2197.36 1294.77C2320.42 1252.46 2457.69 1253.87 2564.5 1299.53" stroke="#048ACD" stroke-opacity="0.2" stroke-miterlimit="10"/>
<path d="M206.667 1046.44C275.112 1008.76 361.068 1013.22 431.063 1046.8C461.201 1061.28 488.949 1080.93 513.284 1104.41C544.814 1134.88 571.006 1170.89 596.788 1206.61C649.433 1279.3 700.743 1349.72 780.208 1384.05C842.196 1410.93 902.979 1437.08 967.655 1450.34C1017.81 1460.64 1064.45 1452.74 1109.91 1432.92C1129.92 1424.21 1149.55 1413.41 1169.29 1401.23C1208.53 1377.05 1247.56 1349.68 1287.76 1332.15C1333.76 1312.09 1381.81 1305.67 1432.19 1331.01C1445.82 1337.86 1457.96 1345.98 1468.73 1355.71C1514.28 1396.84 1534.32 1462.59 1572.02 1518.6C1589.07 1543.95 1609.96 1566.25 1632.62 1583.93C1658.01 1603.63 1686 1617.71 1713.76 1624.43C1766.73 1637.32 1819.13 1625.39 1851.31 1594.2C1878.58 1567.76 1889.3 1531.32 1908.79 1496.64C1949.09 1424.88 2025.09 1354.41 2116.28 1305.67C2141.66 1292.06 2168.28 1280.17 2195.74 1270.57C2320.61 1226.72 2460.94 1231.25 2568.78 1283.12" stroke="#048ACD" stroke-opacity="0.2" stroke-miterlimit="10"/>
<path d="M207.22 1037.79C276.583 1001.25 362.293 1005.54 432.566 1039.06C462.844 1053.52 490.65 1073.09 514.951 1096.79C546.449 1127.48 572.158 1164.01 597.342 1200.41C648.678 1274.63 697.842 1347.93 776.849 1384.15C838.608 1412.57 898.811 1441.12 963.603 1456.66C1014.07 1468.77 1061 1461.68 1106.81 1442.59C1126.95 1434.21 1146.83 1423.59 1166.82 1411.58C1206.46 1387.68 1245.91 1360.6 1286.43 1343.66C1332.77 1324.33 1380.99 1318.88 1431.48 1346.5C1444.99 1353.88 1456.95 1362.6 1467.37 1372.82C1511.6 1416.2 1529.64 1483.23 1567.29 1539.33C1584.42 1564.74 1605.71 1586.82 1629.05 1603.88C1655.2 1623.02 1684.26 1635.9 1713.11 1641.06C1767.99 1650.88 1821.91 1633.8 1853.75 1597.86C1880.73 1567.31 1890.2 1527.07 1908.72 1488.89C1946.71 1409.79 2022.21 1334.09 2114.07 1282.65C2139.61 1268.3 2166.57 1255.91 2194.4 1245.96C2321 1200.51 2464.45 1208.08 2573.4 1266.21" stroke="#048ACD" stroke-opacity="0.2" stroke-miterlimit="10"/>
<path d="M207.83 1029.07C278.111 993.651 363.575 997.772 434.103 1031.11C464.437 1045.48 492.383 1065.03 516.651 1088.95C547.977 1119.89 573.317 1156.77 597.928 1193.99C648.036 1269.78 694.891 1345.87 773.523 1384.02C834.972 1413.93 894.7 1445.08 959.584 1462.75C1010.37 1476.67 1057.53 1470.48 1103.75 1452.04C1123.99 1443.86 1144.05 1433.48 1164.29 1421.65C1204.37 1398.18 1244.14 1371.32 1285.04 1354.89C1331.78 1336.21 1380.07 1331.9 1430.72 1361.71C1444.2 1369.67 1455.83 1379.03 1466.06 1389.72C1509.01 1435.25 1525.02 1503.8 1562.58 1559.84C1579.66 1585.33 1601.48 1607.17 1625.5 1623.6C1652.47 1642.1 1682.5 1653.95 1712.44 1657.55C1769.21 1664.31 1824.66 1642.07 1856.09 1601.33C1882.83 1566.58 1891.07 1522.68 1908.56 1481.09C1944.43 1394.89 2019.17 1313.66 2111.79 1259.58C2137.62 1244.45 2164.76 1231.46 2192.98 1221.3C2321.27 1174.46 2467.79 1185.16 2577.77 1249.5" stroke="#048ACD" stroke-opacity="0.2" stroke-miterlimit="10"/>
<path d="M208.44 1020.34C279.582 986.138 364.858 990.005 435.582 1023.23C466.056 1037.59 494.083 1057.19 518.237 1081.28C549.448 1112.38 574.445 1149.75 598.401 1187.73C647.256 1264.97 691.909 1344.03 770.083 1384.05C831.22 1415.46 890.45 1449.06 955.392 1469.1C1006.5 1484.83 1053.89 1479.53 1100.56 1461.65C1120.94 1453.8 1141.25 1443.6 1161.73 1431.94C1202.17 1408.84 1242.4 1382.19 1283.64 1366.49C1330.73 1348.53 1379.24 1345.12 1429.91 1377.37C1443.25 1385.85 1454.71 1395.82 1464.53 1407.08C1506.3 1454.83 1520.12 1524.77 1557.68 1580.81C1574.78 1606.44 1597.05 1627.99 1621.83 1643.86C1649.62 1661.7 1680.7 1672.58 1711.64 1674.57C1770.26 1678.34 1827.24 1650.95 1858.38 1605.37C1884.91 1566.57 1891.99 1518.93 1908.33 1473.74C1942.07 1380.3 2016.21 1293.65 2109.29 1236.97C2135.28 1221.09 2162.77 1207.61 2191.41 1197.01C2321.73 1148.67 2471.37 1162.41 2582.38 1232.96" stroke="#048ACD" stroke-opacity="0.2" stroke-miterlimit="10"/>
<path d="M209.05 1011.62C281.029 978.485 366.083 982.32 437.061 1015.36C467.592 1029.63 495.759 1049.21 519.88 1073.52C550.977 1104.78 575.572 1142.72 598.93 1181.39C646.475 1260.15 688.983 1342.1 766.56 1384.03C827.387 1416.92 886.119 1452.99 951.176 1475.3C1002.61 1492.84 1050.23 1488.43 1097.22 1471.14C1117.78 1463.56 1138.28 1453.61 1158.93 1442.06C1199.77 1419.24 1240.42 1392.88 1281.98 1377.77C1329.47 1360.46 1378.18 1358.16 1428.87 1392.63C1442.18 1401.7 1453.38 1412.21 1462.93 1424.02C1503.44 1473.94 1515.28 1545.31 1552.7 1601.37C1569.88 1627.05 1592.55 1648.39 1617.95 1663.72C1646.56 1680.92 1678.68 1690.81 1710.61 1691.05C1771.15 1691.9 1829.52 1659.38 1860.44 1608.88C1886.61 1566.05 1892.58 1514.58 1907.9 1465.99C1939.49 1365.32 2012.97 1273.33 2106.73 1213.94C2132.87 1197.32 2160.7 1183.35 2189.63 1172.34C2321.76 1122.46 2474.55 1139.37 2586.64 1216.04" stroke="#048ACD" stroke-opacity="0.2" stroke-miterlimit="10"/>
<path d="M209.521 1002.92C282.418 970.915 367.226 974.577 438.483 1007.57C469.153 1021.81 497.459 1041.36 521.466 1065.84C552.472 1097.41 576.617 1135.65 599.32 1175.07C645.637 1255.42 685.893 1340.07 763.037 1384C823.496 1418.47 881.754 1457.14 946.878 1481.45C998.515 1500.96 1046.48 1497.28 1093.93 1480.56C1114.68 1473.22 1135.28 1463.47 1156.18 1452.09C1197.37 1429.65 1238.49 1403.49 1280.37 1388.97C1328.26 1372.31 1377.09 1371.06 1427.9 1407.81C1441.08 1417.4 1452.1 1428.52 1461.31 1440.82C1500.55 1492.91 1510.27 1565.72 1547.64 1621.87C1564.76 1647.64 1587.88 1668.68 1614.04 1683.44C1643.41 1700.07 1676.62 1708.77 1709.58 1707.54C1772.02 1705.32 1831.8 1667.81 1862.42 1612.34C1888.29 1565.4 1893.04 1510.27 1907.29 1458.12C1936.69 1350.31 2009.57 1252.89 2103.99 1190.8C2130.37 1173.49 2158.44 1158.83 2187.77 1147.61C2321.71 1096.19 2477.56 1116.22 2590.68 1199.1" stroke="#048ACD" stroke-opacity="0.2" stroke-miterlimit="10"/>
<path d="M210.132 994.191C315.783 950.074 443.399 976.106 523.109 1058.08C616.949 1154.57 645.379 1315.64 759.654 1383.96C819.802 1419.92 877.561 1461.04 942.801 1487.63C1017.5 1518.14 1084.3 1499.21 1153.68 1462.3C1242.81 1414.93 1331.86 1350.05 1427.11 1423.25C1496.01 1476.19 1496.82 1573.27 1542.91 1642.6C1579.41 1697.54 1644.61 1729.59 1708.95 1724.31C1773.29 1719.02 1834.58 1676.58 1864.88 1616.14C1890.49 1565.22 1894.13 1506.27 1907.32 1450.58C1942.17 1303.38 2050.7 1176.1 2186.53 1123.2C2322.37 1070.29 2481.26 1093.3 2595.43 1182.53" stroke="#048ACD" stroke-opacity="0.2" stroke-miterlimit="10"/>
<path d="M208.042 1009.57C310.076 972.196 435.055 1000.78 515.14 1080.82C555.253 1120.83 584.335 1171.55 613.302 1221.21C642.933 1272.2 672.31 1322.15 713.372 1359.4C726.559 1371.43 741.023 1382.16 757.027 1391.03C817.232 1424.47 874.834 1462.67 940.115 1488.68C1014.06 1518.17 1080.34 1501.56 1148.46 1468.54C1164.14 1460.95 1179.74 1452.95 1195.39 1445.22C1241.34 1422.44 1287.22 1402.55 1334.81 1406.91C1361.39 1409.39 1388.55 1419.23 1416.3 1440.1C1484.87 1491.59 1489.33 1582.93 1535.98 1647.27C1542.22 1655.79 1549.15 1663.68 1556.67 1670.9C1594.24 1706.69 1647.23 1725.68 1699.62 1719.85C1762.58 1712.88 1822.4 1670.26 1853.04 1610.91C1879.05 1560.64 1884.42 1502.53 1899.01 1447.81C1924.16 1353.39 1979.67 1267.37 2052.72 1204.97C2091.85 1171.69 2135.86 1145.23 2183.02 1127.69C2269.04 1095.6 2363.93 1093.74 2451.4 1118.91C2501.7 1133.34 2549.4 1156.93 2591.27 1189.02" stroke="#048ACD" stroke-opacity="0.2" stroke-miterlimit="10"/>
<path d="M205.895 1025.03C304.368 994.318 426.654 1025.53 507.058 1103.72C547.464 1142.96 577.701 1191.68 607.806 1238.85C638.632 1287.25 668.941 1333.95 710.526 1368.88C723.868 1380.16 738.406 1390.09 754.368 1398.32C814.49 1429.26 872.099 1464.66 937.453 1489.86C1010.72 1518.4 1076.43 1503.83 1143.33 1474.83C1158.73 1468.16 1174.09 1461.2 1189.33 1454.41C1234.22 1434.55 1278.51 1417.45 1325.02 1423.36C1351.1 1426.72 1377.87 1436.77 1405.36 1456.97C1473.6 1507.01 1481.73 1592.75 1528.93 1652.11C1535.28 1659.96 1542.16 1667.22 1549.73 1673.85C1587.17 1706.5 1639.05 1722.89 1690.2 1715.7C1751.7 1706.97 1810.21 1664.31 1841.09 1605.85C1867.41 1556.16 1874.62 1499.09 1890.66 1445.27C1918.19 1352.5 1975.19 1268.02 2048.67 1207.26C2088.23 1174.77 2132.47 1149.21 2179.56 1132.47C2265.49 1101.9 2359.77 1101.08 2447.26 1126.39C2497.43 1140.85 2545.07 1164.16 2587.15 1195.78" stroke="#048ACD" stroke-opacity="0.2" stroke-miterlimit="10"/>
<path d="M203.666 1040.43C298.521 1016.46 418.227 1050.14 499.031 1126.54C539.708 1164.87 571.042 1211.67 602.227 1256.42C634.248 1302.24 665.514 1345.83 707.515 1378.25C721.07 1388.7 735.542 1397.85 751.545 1405.5C811.723 1433.91 869.232 1466.32 934.545 1490.88C1007.17 1518.24 1072.31 1506.07 1137.87 1480.9C1153 1475.13 1168.03 1469.17 1182.95 1463.37C1226.71 1446.5 1269.56 1432.17 1314.89 1439.59C1340.54 1443.74 1366.94 1454.15 1394.17 1473.67C1462.14 1522.18 1473.75 1602.42 1521.62 1656.64C1527.92 1663.85 1535.05 1670.42 1542.49 1676.35C1579.75 1705.95 1630.44 1719.67 1680.45 1710.97C1740.58 1700.54 1797.71 1657.76 1828.9 1600.25C1855.68 1551.13 1864.5 1495.07 1881.99 1442.14C1911.95 1350.95 1970.09 1267.99 2044.17 1209C2084.13 1177.15 2128.62 1152.62 2175.64 1136.69C2261.53 1107.55 2355.16 1107.86 2442.81 1133.28C2492.84 1147.77 2540.46 1170.94 2582.65 1202.03" stroke="#048ACD" stroke-opacity="0.2" stroke-miterlimit="10"/>
<path d="M201.518 1055.89C292.756 1038.67 409.825 1074.9 491.005 1149.36C532.034 1186.84 564.325 1231.75 596.705 1273.91C629.781 1317.18 662.201 1357.54 704.701 1387.51C718.329 1397.16 732.899 1405.64 748.919 1412.57C808.956 1438.57 866.587 1468.01 931.858 1491.93C1003.73 1518.28 1068.4 1508.34 1132.71 1487.05C1147.57 1482.19 1162.28 1477.22 1176.81 1472.5C1219.51 1458.55 1260.85 1447.07 1305.07 1455.9C1330.23 1460.93 1356.2 1471.77 1383.28 1490.46C1451.04 1537.36 1466.27 1612.07 1514.61 1661.25C1521.01 1667.8 1528.09 1673.73 1535.57 1679.08C1572.71 1705.54 1622.29 1716.66 1671.06 1706.6C1729.73 1694.42 1785.39 1651.46 1816.92 1595.04C1844.02 1546.52 1854.73 1491.41 1873.67 1439.37C1906.01 1349.85 1965.56 1268.36 2040.01 1211.1C2080.46 1179.95 2125.04 1156.34 2172.12 1141.18C2257.93 1113.58 2351.03 1114.98 2438.63 1140.48C2488.52 1154.99 2536.08 1177.88 2578.49 1208.51" stroke="#048ACD" stroke-opacity="0.2" stroke-miterlimit="10"/>
<path d="M199.371 1071.35C287.131 1060.85 401.342 1099.59 482.98 1172.18C524.279 1208.75 557.748 1251.8 591.266 1291.46C625.537 1332.15 658.832 1369.34 701.912 1396.9C715.696 1405.81 730.339 1413.49 746.235 1419.72C806.272 1443.28 863.803 1469.72 929.09 1492.92C1000.27 1518.17 1064.47 1510.47 1127.47 1493.15C1142.12 1489.12 1156.52 1485.28 1170.64 1481.49C1212.2 1470.4 1251.98 1461.85 1295.24 1472.22C1319.91 1478.12 1345.61 1489.01 1372.39 1507.25C1439.59 1553.03 1458.65 1621.75 1507.54 1665.95C1514.04 1671.84 1521.14 1677.04 1528.58 1681.76C1565.6 1705.08 1614.01 1713.68 1661.59 1702.17C1718.94 1688.21 1773.16 1645.23 1804.99 1589.76C1832.5 1541.88 1844.88 1487.7 1865.36 1436.61C1900.16 1348.8 1960.97 1268.81 2035.92 1213.11C2076.85 1182.67 2121.6 1160.03 2168.61 1145.68C2254.25 1119.54 2346.77 1122.13 2434.53 1147.74C2484.36 1162.34 2531.8 1184.89 2574.32 1214.99" stroke="#048ACD" stroke-opacity="0.2" stroke-miterlimit="10"/>
<path d="M197.199 1086.67C281.341 1082.91 392.972 1124.12 474.954 1195C516.604 1230.71 551.089 1271.79 585.687 1309.04C621.096 1347.22 655.462 1381.14 698.902 1406.27C712.898 1414.35 727.5 1421.39 743.412 1426.9C803.423 1447.88 860.961 1471.52 926.264 1494C996.689 1518.23 1060.42 1512.77 1122.17 1499.33C1136.55 1496.21 1150.63 1493.36 1164.42 1490.56C1204.85 1482.47 1243.18 1476.69 1285.28 1488.56C1309.54 1495.4 1334.85 1506.5 1361.36 1524.07C1428.23 1568.39 1450.97 1631.51 1500.39 1670.59C1506.99 1675.81 1514.05 1680.38 1521.44 1684.46C1558.34 1704.64 1605.58 1710.71 1651.98 1697.76C1707.87 1682.06 1760.65 1639.04 1792.85 1584.44C1820.67 1537.15 1834.87 1483.87 1856.74 1433.75C1893.91 1347.61 1956.08 1269.18 2031.46 1215.12C2072.82 1185.47 2117.8 1163.72 2164.82 1150.23C2250.43 1125.53 2342.28 1129.24 2430.06 1155C2479.82 1169.53 2527.23 1191.95 2569.82 1221.61" stroke="#048ACD" stroke-opacity="0.2" stroke-miterlimit="10"/>
<path d="M195.052 1102.13C275.633 1105.03 384.571 1148.88 466.928 1217.82C508.849 1252.62 544.512 1291.84 580.165 1326.53C616.769 1362.14 652.068 1392.8 696.031 1415.61C710.1 1422.89 724.858 1429.18 740.671 1434.14C800.681 1452.67 858.119 1473.31 923.438 1495.07C993.191 1518.35 1056.38 1515.06 1116.81 1505.59C1130.93 1503.38 1144.73 1501.44 1158.14 1499.71C1197.43 1494.48 1234.28 1491.7 1275.26 1504.98C1299.03 1512.7 1324.02 1524.07 1350.2 1540.91C1416.74 1583.78 1443.15 1641.3 1493.1 1675.25C1499.8 1679.81 1506.95 1683.72 1514.31 1687.16C1551 1704.15 1597.22 1707.67 1642.37 1693.36C1696.88 1675.96 1748.27 1632.83 1780.73 1579.26C1808.96 1532.61 1824.99 1480.37 1848.22 1431.09C1888 1346.64 1951.43 1269.71 2027.11 1217.33C2068.96 1188.38 2114.03 1167.55 2161.11 1154.84C2246.63 1131.66 2337.96 1136.47 2425.82 1162.28C2475.44 1176.84 2522.74 1199.06 2565.59 1228.17" stroke="#048ACD" stroke-opacity="0.2" stroke-miterlimit="10"/>
<path d="M192.905 1117.59C269.868 1127.24 376.054 1173.79 458.902 1240.64C501.117 1274.67 537.796 1311.91 574.726 1344.08C612.442 1377.05 648.838 1404.57 693.242 1425.01C707.467 1431.54 722.24 1437.11 738.07 1441.35C798.078 1457.44 855.441 1475.22 920.776 1496.26C989.774 1518.52 1052.58 1517.53 1111.6 1511.83C1125.44 1510.53 1138.92 1509.58 1152 1508.84C1190.09 1506.55 1225.57 1506.6 1265.44 1521.3C1288.72 1529.89 1313.37 1541.4 1339.31 1557.7C1405.52 1599.12 1435.61 1651.03 1486.04 1679.95C1492.75 1683.79 1499.94 1687.11 1507.26 1689.91C1543.82 1703.76 1588.8 1704.71 1632.9 1688.93C1685.95 1669.78 1736.04 1626.59 1768.73 1573.91C1797.33 1527.78 1815.06 1476.6 1839.74 1428.21C1881.89 1345.43 1946.68 1270.05 2022.94 1219.29C2065.26 1191.04 2110.51 1171.19 2157.52 1159.28C2243 1137.55 2333.67 1143.47 2421.56 1169.43C2471.03 1184.01 2518.29 1205.95 2561.34 1234.6" stroke="#048ACD" stroke-opacity="0.2" stroke-miterlimit="10"/>
<path d="M190.676 1132.99C264.078 1149.3 367.489 1198.43 450.877 1263.46C493.362 1296.58 531.219 1331.96 569.204 1361.58C608.059 1392.04 645.386 1416.31 690.289 1434.29C704.669 1440.08 719.516 1444.85 735.304 1448.44C795.286 1461.96 852.574 1476.88 918.008 1497.26C986.252 1518.5 1048.65 1519.66 1106.36 1517.92C1119.93 1517.53 1133.16 1517.63 1145.84 1517.83C1182.78 1518.4 1216.78 1521.44 1255.62 1537.61C1278.4 1547.08 1302.75 1558.86 1328.42 1574.49C1394.31 1614.47 1428.12 1660.69 1479.11 1684.62C1485.92 1687.8 1493.13 1690.4 1500.48 1692.62C1536.92 1703.33 1580.79 1701.67 1623.64 1684.54C1675.32 1663.69 1723.95 1620.33 1756.97 1568.74C1785.97 1523.25 1805.51 1472.98 1831.65 1425.48C1876.17 1344.36 1942.4 1270.59 2019.01 1221.42C2061.76 1193.96 2107.23 1175 2154.17 1163.89C2239.48 1143.63 2329.63 1150.65 2417.62 1176.8C2466.96 1191.41 2514.24 1213.13 2557.37 1241.33" stroke="#048ACD" stroke-opacity="0.2" stroke-miterlimit="10"/>
<path d="M188.529 1148.45C258.314 1171.51 359.145 1223.1 442.851 1286.28C485.688 1318.55 524.56 1351.96 563.626 1379.15C603.675 1407.04 641.959 1428.19 687.418 1443.63C701.929 1448.53 716.874 1452.64 732.621 1455.6C792.602 1466.67 849.815 1478.73 915.24 1498.25C982.811 1518.53 1044.74 1521.94 1101.12 1524.02C1114.42 1524.54 1127.33 1525.63 1139.67 1526.82C1175.47 1530.25 1207.99 1536.28 1245.71 1553.87C1268.09 1564.27 1291.96 1576.21 1317.45 1591.23C1383.01 1629.75 1420.5 1670.37 1472.02 1689.18C1478.92 1691.69 1486.09 1693.66 1493.41 1695.24C1529.72 1702.81 1572.42 1698.63 1614.09 1680.05C1664.31 1657.45 1711.63 1614.04 1744.88 1563.34C1774.29 1518.5 1795.5 1469.15 1823.08 1422.54C1870.07 1343.14 1937.62 1270.79 2014.61 1223.35C2057.92 1196.65 2103.41 1178.55 2150.41 1168.22C2235.63 1149.48 2325.17 1157.55 2413.25 1183.75C2462.45 1198.38 2509.63 1219.91 2552.93 1247.5" stroke="#048ACD" stroke-opacity="0.2" stroke-miterlimit="10"/>
<path d="M186.439 1163.83C252.606 1193.63 350.8 1247.77 434.825 1309.1C477.875 1340.54 517.901 1371.95 558.186 1396.7C599.291 1422.03 638.647 1439.91 684.629 1453.03C699.295 1457.18 714.256 1460.57 729.937 1462.75C789.892 1471.24 847.112 1480.5 912.496 1499.38C979.313 1518.65 1040.86 1524.35 1095.9 1530.26C1108.94 1531.69 1121.51 1533.77 1133.53 1535.95C1168.12 1542.32 1199.22 1551.26 1235.89 1570.19C1257.78 1581.47 1281.33 1593.67 1306.48 1607.96C1371.77 1644.95 1412.94 1679.96 1464.87 1693.82C1471.87 1695.67 1479.14 1696.97 1486.33 1697.85C1522.52 1702.29 1564.06 1695.59 1604.45 1675.51C1653.29 1651.22 1699.23 1607.68 1732.8 1557.94C1762.6 1513.75 1785.57 1465.37 1814.6 1419.66C1863.97 1341.92 1932.95 1271.19 2010.35 1225.25C2054.09 1199.34 2099.8 1182.13 2146.73 1172.61C2231.93 1155.3 2320.88 1164.55 2408.99 1190.9C2458.04 1205.55 2505.26 1226.86 2548.68 1253.93" stroke="#048ACD" stroke-opacity="0.2" stroke-miterlimit="10"/>
<path d="M184.21 1179.24C246.898 1215.75 342.317 1272.47 426.8 1331.91C470.201 1362.51 511.266 1392.08 552.665 1414.2C594.964 1436.94 635.277 1451.71 681.676 1462.31C696.497 1465.72 711.531 1468.3 727.171 1469.84C787.126 1475.89 844.188 1482.24 909.645 1500.31C975.79 1518.63 1036.81 1526.64 1090.58 1536.3C1103.35 1538.64 1115.6 1541.71 1127.29 1544.88C1160.73 1554.12 1190.35 1566.04 1225.9 1586.39C1247.24 1598.63 1270.6 1610.94 1295.49 1624.56C1360.45 1660.1 1405.35 1689.42 1457.75 1698.24C1464.85 1699.43 1472.08 1700.09 1479.31 1700.39C1515.37 1701.69 1555.73 1692.32 1595.01 1670.86C1642.39 1644.81 1687.03 1601.23 1720.77 1552.46C1751.03 1508.83 1775.67 1461.38 1806.1 1416.65C1857.84 1340.56 1928.26 1271.44 2006.01 1227.09C2050.23 1201.89 2096.12 1185.66 2143.06 1176.99C2228.16 1161.21 2316.45 1171.58 2404.64 1197.99C2453.61 1212.59 2500.72 1233.69 2544.29 1260.38" stroke="#048ACD" stroke-opacity="0.2" stroke-miterlimit="10"/>
<path d="M182.062 1194.7C241.133 1237.96 333.972 1297.14 418.774 1354.73C462.445 1384.42 504.607 1412.07 547.086 1431.77C590.58 1451.94 631.908 1463.51 678.747 1471.74C693.642 1474.34 708.832 1476.18 724.43 1477.08C784.359 1480.55 841.371 1484.18 906.901 1501.45C972.292 1518.74 1033.01 1529.11 1085.23 1542.56C1097.8 1545.86 1109.64 1549.87 1120.95 1554.12C1153.25 1566.21 1181.41 1581.26 1215.91 1602.95C1236.84 1616.12 1259.72 1628.59 1284.43 1641.59C1349.14 1675.74 1397.69 1699.32 1450.57 1703.1C1457.77 1703.62 1465.01 1703.56 1472.2 1703.22C1508.14 1701.39 1547.33 1689.5 1585.43 1666.6C1631.43 1638.86 1674.68 1595.15 1708.73 1547.33C1739.32 1504.29 1765.79 1457.89 1797.67 1414.04C1851.84 1339.54 1923.56 1272.06 2001.74 1229.36C2046.45 1204.86 2092.43 1189.54 2139.37 1181.74C2224.3 1167.42 2312.07 1178.89 2400.37 1205.49C2449.28 1220.17 2496.26 1240.94 2540.03 1267.16" stroke="#048ACD" stroke-opacity="0.2" stroke-miterlimit="10"/>
<path d="M179.915 1210.16C235.426 1260.08 325.571 1321.89 410.748 1377.55C454.771 1406.39 498.03 1432.12 541.646 1449.32C586.278 1466.99 628.538 1475.31 675.958 1481.13C691.008 1482.99 706.271 1484.03 721.829 1484.29C781.813 1485.24 838.668 1485.95 904.157 1502.58C968.876 1518.92 1029.07 1531.6 1080.01 1548.8C1092.32 1553.01 1103.83 1558.01 1114.81 1563.25C1146.02 1578.12 1173.27 1595.34 1206.08 1619.27C1226.12 1633.89 1249.1 1646.05 1273.54 1658.38C1337.98 1691 1390.21 1708.97 1443.56 1707.72C1450.85 1707.58 1458.06 1706.88 1465.29 1705.96C1501.1 1700.98 1539.18 1686.49 1576.04 1662.23C1620.58 1632.73 1662.53 1588.97 1696.81 1542.05C1727.8 1499.65 1755.94 1454.17 1789.33 1411.14C1845.88 1338.3 1919.03 1272.43 1997.7 1231.29C2042.92 1207.64 2089.05 1193.15 2135.98 1186.07C2220.87 1173.2 2308.06 1185.85 2396.36 1212.45C2445.13 1227.16 2492.08 1247.79 2535.98 1273.48" stroke="#048ACD" stroke-opacity="0.2" stroke-miterlimit="10"/>
<path d="M177.743 1225.48C229.636 1282.14 317.234 1346.2 402.779 1400.29C447.13 1428.13 491.371 1452.11 536.182 1466.73C581.927 1481.76 625.226 1487.02 673.12 1490.25C688.382 1491.29 703.604 1491.68 719.177 1491.22C779.079 1489.67 835.941 1487.58 901.503 1503.41C965.411 1518.81 1025.28 1533.71 1074.89 1554.73C1086.92 1559.85 1098.17 1565.76 1108.76 1572.07C1138.74 1589.75 1163.91 1611 1196.29 1635.36C1216.27 1650.42 1238.42 1663.23 1262.6 1674.9C1326.72 1706.06 1382.68 1718.35 1436.52 1712.2C1443.84 1711.33 1451.22 1710.03 1458.33 1708.41C1494.02 1700.3 1530.93 1683.28 1566.6 1657.58C1609.76 1626.39 1650.25 1582.46 1684.78 1536.57C1716.17 1494.82 1745.96 1450.12 1780.9 1408.18C1839.67 1336.89 1914.41 1272.74 1993.44 1233.2C2039.15 1210.24 2085.44 1196.74 2132.3 1190.46C2217.11 1179.11 2303.69 1192.8 2392.09 1219.59C2440.73 1234.33 2487.63 1254.68 2531.65 1279.85" stroke="#048ACD" stroke-opacity="0.2" stroke-miterlimit="10"/>
<path d="M175.596 1240.94C223.871 1304.35 308.832 1370.96 394.696 1423.19C439.398 1450.18 484.655 1472.19 530.546 1484.39C577.428 1496.92 621.717 1498.85 670.134 1499.76C685.47 1499.99 700.765 1499.58 716.379 1498.54C776.337 1494.46 833.066 1489.6 898.702 1504.62C961.937 1519.07 1021.22 1536.37 1069.61 1561.05C1081.38 1567.08 1092.18 1574.15 1102.56 1581.29C1131.8 1601.24 1155.08 1626.06 1186.36 1651.84C1205.84 1667.78 1227.74 1680.78 1251.6 1691.85C1315.44 1721.49 1375.05 1728.03 1429.4 1716.98C1436.81 1715.45 1444.15 1713.5 1451.22 1711.25C1486.78 1700 1522.59 1680.38 1557.01 1653.32C1598.72 1620.37 1637.9 1576.39 1672.74 1531.44C1704.59 1490.26 1736.08 1446.63 1772.39 1405.52C1833.61 1335.95 1909.71 1273.36 1989.15 1235.32C2035.36 1213.21 2081.72 1200.48 2128.59 1195.06C2213.23 1185.18 2299.29 1199.97 2387.71 1226.9C2436.21 1241.66 2483.06 1261.73 2527.29 1286.44" stroke="#048ACD" stroke-opacity="0.2" stroke-miterlimit="10"/>
<path d="M173.449 1256.4C218.163 1326.47 300.43 1395.71 386.67 1446.01C431.642 1472.09 478.078 1492.24 525.106 1501.94C573.184 1511.89 618.454 1510.84 667.345 1509.16C682.836 1508.64 698.204 1507.43 713.695 1505.69C773.627 1499.04 830.306 1491.45 895.933 1505.61C958.357 1519.13 1017.26 1538.72 1064.37 1567.15C1075.87 1574.09 1086.46 1581.98 1096.4 1590.28C1124.15 1613.59 1146.23 1640.99 1176.51 1668.02C1195.44 1684.92 1217.09 1698.1 1240.69 1708.5C1304.26 1736.61 1367.46 1737.49 1422.36 1721.45C1429.87 1719.26 1437.23 1716.59 1444.34 1713.76C1479.7 1699.31 1514.34 1677.17 1547.71 1648.64C1588.1 1613.92 1625.83 1569.9 1660.91 1525.85C1693.16 1485.32 1726.32 1442.61 1764.16 1402.45C1827.76 1334.54 1905.3 1273.57 1985.09 1237.12C2031.73 1215.79 2078.38 1203.88 2125.17 1199.26C2209.77 1190.82 2295.17 1206.73 2383.7 1233.86C2432.06 1248.64 2478.89 1268.58 2523.24 1292.76" stroke="#048ACD" stroke-opacity="0.2" stroke-miterlimit="10"/>
<path d="M171.22 1271.8C212.316 1348.61 292.004 1420.32 378.645 1468.83C423.968 1494.06 471.419 1512.23 519.585 1519.43C568.718 1526.82 615.06 1522.5 664.474 1518.5C680.121 1517.24 695.562 1515.22 711.012 1512.85C770.893 1503.47 827.489 1493.38 893.19 1506.75C954.941 1519.3 1013.72 1540.64 1059.02 1573.41C1070.21 1581.48 1080.65 1590.12 1090.2 1599.49C1116.86 1625.58 1137.35 1656.13 1166.65 1684.55C1185.04 1702.41 1206.41 1715.65 1229.77 1725.52C1293.01 1752.17 1359.95 1747.36 1415.26 1726.37C1422.87 1723.52 1430.18 1720.21 1437.25 1716.73C1472.49 1699.15 1505.97 1674.49 1538.15 1644.52C1577.08 1608.05 1613.59 1564.03 1648.84 1520.95C1681.49 1481.06 1716.46 1439.26 1755.7 1400.07C1821.73 1333.74 1900.73 1274.52 1980.79 1239.6C2027.99 1219.04 2074.73 1208.04 2121.45 1204.22C2205.97 1197.31 2290.84 1214.32 2379.37 1241.45C2427.59 1256.25 2474.37 1275.91 2518.92 1299.62" stroke="#048ACD" stroke-opacity="0.2" stroke-miterlimit="10"/>
<path d="M169.073 1287.26C206.691 1370.79 283.603 1445.08 370.619 1491.65C416.213 1515.97 464.785 1532.36 514.088 1537.07C564.416 1541.88 611.715 1534.44 661.546 1527.92C677.348 1525.91 692.805 1523.18 708.271 1520.08C768.151 1508.26 824.672 1495.32 890.364 1507.82C951.386 1519.5 1009.24 1543.73 1053.72 1579.59C1064.7 1588.49 1074.75 1598.2 1083.98 1608.56C1109.64 1637.48 1128.36 1671.08 1156.69 1700.89C1174.53 1719.71 1195.64 1733.14 1218.66 1742.28C1281.63 1767.4 1352.16 1756.93 1408.03 1730.95C1415.74 1727.44 1423.15 1723.47 1430.18 1719.35C1465.29 1698.63 1497.66 1671.36 1528.51 1639.98C1566.06 1601.81 1601.19 1557.68 1636.67 1515.49C1669.81 1476.31 1706.37 1435.37 1747.11 1397C1815.52 1332.33 1895.97 1274.86 1976.42 1241.31C2024.13 1221.59 2070.94 1211.37 2117.75 1208.47C2202.24 1203 2286.39 1221.21 2375.08 1248.46C2423.22 1263.2 2469.97 1282.72 2514.57 1305.85" stroke="#048ACD" stroke-opacity="0.2" stroke-miterlimit="10"/>
<path d="M166.982 1302.64C200.982 1392.92 275.176 1469.69 362.593 1514.47C408.538 1537.94 458.125 1552.35 508.566 1554.56C560.089 1556.79 608.345 1546.24 658.732 1537.18C674.607 1534.37 690.22 1530.89 705.587 1527.23C765.441 1512.84 821.854 1497.25 887.677 1508.87C947.969 1519.67 1005.22 1546.16 1048.56 1585.74C1059.27 1595.55 1069.05 1606.17 1077.9 1617.61C1102.46 1649.31 1119.6 1686.06 1146.87 1717.21C1164.24 1737.04 1184.99 1750.46 1207.77 1759.07C1270.45 1782.52 1344.57 1766.38 1401.02 1735.57C1408.74 1731.33 1416.19 1726.78 1423.18 1722.02C1458.17 1698.17 1489.37 1668.37 1519.04 1635.55C1555.13 1595.63 1588.96 1551.44 1624.75 1510.21C1658.29 1471.67 1696.6 1431.71 1738.8 1394.23C1809.58 1331.22 1891.47 1275.37 1972.35 1243.46C2020.57 1224.59 2067.53 1215.2 2114.32 1213.03C2198.63 1209.02 2282.26 1228.33 2370.98 1255.72C2419.06 1270.55 2465.68 1289.73 2510.42 1312.47" stroke="#048ACD" stroke-opacity="0.2" stroke-miterlimit="10"/>
<path d="M164.835 1318.1C211.283 1466.13 353.634 1573 503.127 1572.11C555.705 1571.78 605.033 1557.95 655.943 1546.58C734.54 1528.93 802.291 1496.26 884.991 1509.92C959.26 1522.2 1029.27 1563.95 1071.68 1626.68C1095.1 1661.24 1110.69 1701.06 1136.96 1733.47C1206.84 1819.55 1340.39 1783.35 1416.19 1724.7C1493.36 1664.94 1547.11 1578.3 1612.83 1504.92C1703.84 1403.22 1838.43 1293.8 1968.12 1245.5C2104.46 1194.66 2228.76 1220.2 2366.72 1262.86C2414.66 1277.72 2461.17 1296.7 2506.18 1318.9" stroke="#048ACD" stroke-opacity="0.2" stroke-miterlimit="10"/>
</svg>
