<svg width="371" height="456" viewBox="0 0 371 456" fill="none" xmlns="http://www.w3.org/2000/svg">
<path d="M131.343 417.619C48.8463 361.661 0 269.64 0 172.042V93.4308L19.3631 90.6423C65.8908 84.1567 110.131 63.8224 148.387 32.8355L185.265 0L222.581 33.3055C257.61 63.8224 300.472 83.718 347.031 90.6423H371V172.042C371 271.488 322.154 363.039 240.096 417.18L188.492 456L131.343 417.619Z" fill="#14C962"/>
<path d="M187.769 428L144.027 398.848C69.0265 347.503 23 262.367 23 172.121V113.817C74.064 106.419 122.406 84.6647 163.363 50.4347L184.984 31L206.636 50.4347C245.279 84.6647 293.621 106.419 344.685 113.817H347V172.121C347 262.367 303.289 347.503 225.942 398.848L187.769 428Z" fill="#00EC6A"/>
<path d="M175.492 289C168.114 289 163.5 286.685 158.414 281.586L102.533 228.034C95.1556 220.651 95.1556 206.325 102.533 198.943C109.911 191.56 124.226 191.56 131.635 198.943L172.729 235.416L243.365 167.537C250.774 160.154 265.089 160.154 272.467 167.537C279.844 174.95 279.844 189.246 272.467 196.628L187.516 283.901C185.193 286.685 180.107 289 175.492 289Z" fill="white"/>
</svg>
