<svg width="2075" height="1835" viewBox="0 0 2075 1835" fill="none" xmlns="http://www.w3.org/2000/svg">
<path d="M0.999776 849.7C54.846 808.237 131.871 809.765 193.339 837.469C219.834 849.438 244.329 865.571 266.987 884.323C296.427 908.725 322.707 937.044 349.757 963.382C404.996 1017.11 463.712 1061.53 536.879 1078.4C593.741 1091.62 649.843 1099.57 706.46 1096.65C748.751 1094.46 788.04 1080.97 824.921 1058.85C841.265 1049 857.079 1037.66 872.914 1025.52C904.469 1001.15 935.281 974.325 968.311 954.36C1005.95 931.567 1047.09 918.266 1090.99 927.001C1103.61 929.451 1115.48 933.073 1126.92 938.399C1174.48 961.017 1205.15 1010.11 1240.83 1057.79C1256.68 1078.95 1273.54 1099.28 1290.55 1117.06C1309.65 1137 1329.35 1154.2 1348.93 1167.69C1386.77 1193.66 1423.31 1208.75 1455.43 1205.18C1478.82 1202.64 1495.76 1189.55 1518.13 1176.46C1563.82 1149.58 1632.65 1113.06 1708.12 1081.12C1729 1072.19 1750.57 1063.71 1772.44 1056.07C1871.26 1021.39 1977.72 1004.45 2067.58 1013.51" stroke="white" stroke-opacity="0.22" stroke-miterlimit="10"/>
<path d="M1.39498 841.647C55.9533 801.138 132.863 802.596 194.601 830.142C221.172 841.995 245.786 858.204 268.296 877.192C297.589 901.829 323.646 930.5 350.25 957.541C404.479 1012.61 461.362 1059.64 534.22 1078.29C590.88 1092.87 646.757 1102.99 703.416 1102.07C746.046 1101.43 785.622 1088.78 822.822 1067.19C839.326 1057.61 855.373 1046.43 871.326 1034.36C903.231 1010.21 934.511 983.692 967.743 964.188C1005.63 942.049 1046.98 929.71 1091.19 940.291C1103.74 943.36 1115.5 947.408 1126.64 953.203C1173.25 977.847 1202.17 1028.13 1237.67 1075.85C1253.44 1097.13 1270.84 1117.14 1288.34 1134.42C1308 1153.73 1328.8 1169.97 1349.17 1181.99C1388.61 1205.19 1426.92 1215.97 1457.95 1207.92C1481.46 1201.83 1496.87 1185.45 1518.06 1169.3C1561.66 1136.14 1629.66 1094.98 1705.59 1060.53C1726.72 1050.94 1748.4 1042.03 1770.68 1034C1871.09 997.874 1980.39 983.738 2071.43 998.18" stroke="white" stroke-opacity="0.33" stroke-miterlimit="10"/>
<path d="M1.25211 834.438C56.7369 794.812 133.36 796.228 195.263 823.544C222.032 835.356 246.65 851.569 269.207 870.753C298.431 895.514 324.076 924.587 350.235 952.34C403.383 1008.87 458.514 1058.42 530.962 1078.78C587.432 1094.71 642.98 1106.91 699.813 1108.06C742.795 1108.95 782.671 1097.13 820.279 1075.95C836.949 1066.63 853.119 1055.51 869.313 1043.58C901.582 1019.65 933.152 993.458 966.79 974.357C1005.01 952.737 1046.51 941.465 1090.96 954.007C1103.41 957.502 1115.11 962.169 1125.84 968.359C1171.38 994.956 1198.59 1046.64 1234.09 1094.38C1249.98 1115.74 1267.65 1135.6 1285.84 1152.32C1306.19 1171.09 1327.78 1186.36 1349.05 1196.97C1389.99 1217.33 1430.03 1223.6 1460.06 1211.43C1483.63 1201.9 1497.4 1182.15 1517.53 1163.01C1559.06 1123.55 1626.15 1077.64 1702.71 1040.91C1723.91 1030.7 1745.97 1021.2 1768.41 1012.93C1870.37 975.428 1982.57 963.76 2074.75 983.689" stroke="white" stroke-opacity="0.22" stroke-miterlimit="10"/>
</svg>
