<svg width="24" height="24" viewBox="0 0 24 24" fill="none" xmlns="http://www.w3.org/2000/svg">
<path d="M12.4805 0C16.5126 7.67025e-10 18.5292 0.000452951 20.0693 0.785156C21.4238 1.4754 22.5256 2.57622 23.2158 3.93066C24.0006 5.47077 24 7.48735 24 11.5195V12.4795C24 16.5117 24.0006 18.5282 23.2158 20.0684C22.5256 21.423 21.424 22.5246 20.0693 23.2148C18.5292 23.9995 16.5126 23.999 12.4805 23.999H11.5205C7.48846 23.999 5.47176 23.9994 3.93164 23.2148C2.57699 22.5246 1.47546 21.4229 0.785156 20.0684C0.000397468 18.5282 0 16.5117 0 12.4795V11.5195C0 7.48735 0.000403882 5.47077 0.785156 3.93066C1.47547 2.57619 2.57704 1.47533 3.93164 0.785156C5.4718 0.000479094 7.48819 0 11.5205 0H12.4805ZM17.1055 8.39941C16.7886 8.3995 16.4845 8.52472 16.2598 8.74805L11.1113 13.9082L8.11035 10.9248C8.0028 10.7993 7.8705 10.697 7.72168 10.625C7.57283 10.553 7.41035 10.5132 7.24512 10.5068C7.08009 10.5005 6.91551 10.5277 6.76172 10.5879C6.60773 10.6482 6.46753 10.7405 6.35059 10.8574C6.23379 10.9743 6.14233 11.1138 6.08203 11.2676C6.0217 11.4216 5.99362 11.5867 6 11.752C6.0064 11.9172 6.04714 12.0797 6.11914 12.2285C6.19116 12.3772 6.29346 12.5097 6.41895 12.6172L10.2598 16.4521C10.3719 16.5634 10.5052 16.6512 10.6514 16.7109C10.7974 16.7705 10.9536 16.8007 11.1113 16.7998C11.4261 16.7985 11.7286 16.6738 11.9521 16.4521L17.9521 10.4521C18.0645 10.3406 18.154 10.2076 18.2148 10.0615C18.2756 9.91548 18.3066 9.75878 18.3066 9.60059C18.3066 9.44218 18.2758 9.2849 18.2148 9.13867C18.1539 8.99246 18.0646 8.85959 17.9521 8.74805C17.7273 8.52455 17.4225 8.39941 17.1055 8.39941Z" fill="#12CA41"/>
</svg>
