<svg width="45" height="45" viewBox="0 0 45 45" fill="none" xmlns="http://www.w3.org/2000/svg">
<path opacity="0.5" d="M41.25 22.5C41.25 26.2084 40.1503 29.8335 38.0901 32.9169C36.0298 36.0004 33.1014 38.4036 29.6753 39.8227C26.2492 41.2419 22.4792 41.6132 18.8421 40.8897C15.2049 40.1663 11.864 38.3805 9.24175 35.7583C6.61951 33.136 4.83375 29.7951 4.11028 26.1579C3.3868 22.5208 3.75812 18.7508 5.17726 15.3247C6.5964 11.8986 8.99964 8.97022 12.0831 6.90995C15.1665 4.84967 18.7916 3.75 22.5 3.75" stroke="white" stroke-width="1.5" stroke-linecap="round"/>
<path d="M28.125 22.5L22.5 22.5M22.5 22.5L16.875 22.5M22.5 22.5L22.5 16.875M22.5 22.5L22.5 28.125" stroke="white" stroke-width="1.5" stroke-linecap="round"/>
<path d="M27.1875 4.34033C33.7763 6.03617 38.9635 11.2233 40.6593 17.8121" stroke="white" stroke-width="1.5" stroke-linecap="round"/>
</svg>
