<svg width="2683" height="2538" viewBox="0 0 2683 2538" fill="none" xmlns="http://www.w3.org/2000/svg">
<path d="M197.138 1176.68C252.102 1121.77 341.084 1128.35 406.842 1163.48C472.657 1198.52 524.423 1256.07 585.73 1298.94C750.058 1413.73 984.68 1407.94 1150.7 1284.99C1203.9 1245.57 1249.79 1196.02 1302.71 1156.15C1355.62 1116.27 1419.25 1085.97 1482.73 1093.75C1574.01 1104.99 1638.38 1190.52 1677.91 1276.98C1717.44 1363.44 1743.81 1459.73 1805.61 1529.91C1886.84 1622.1 2017.02 1652.24 2138.02 1638.62C2258.94 1624.95 2373.8 1573.25 2486.42 1522.17" stroke="#048ACD" stroke-opacity="0.2" stroke-miterlimit="10"/>
<path d="M197.725 1168.06C253.516 1114.22 342.279 1120.77 408.289 1155.7C436.81 1170.76 462.79 1190.15 487.795 1210.93C520.625 1238.16 551.988 1267.66 586.146 1292.64C655.783 1343.66 737.503 1373.59 822.893 1380.47C888.806 1385.8 955.735 1378.79 1019.26 1358.67C1064.6 1344.49 1107.82 1322.97 1147.42 1294.53C1165.15 1281.8 1182.11 1267.91 1198.79 1253.58C1232.69 1224.45 1265.38 1193.62 1301.17 1167.52C1341.78 1137.96 1388.37 1114.4 1436.35 1109.76C1451.3 1108.26 1466.27 1108.47 1481.17 1110.84C1543.68 1120.88 1592.23 1166.42 1630.41 1221.79C1646.9 1245.77 1661.54 1271.51 1674.07 1296.99C1688.12 1325.48 1701 1354.62 1714.25 1383.04C1740.17 1439 1766.96 1492.51 1807.69 1533.68C1834.22 1560.41 1865.15 1579.97 1899.49 1593.97C1969.26 1622.5 2053.84 1627.59 2135.59 1615.82C2158.03 1612.6 2180.28 1608.27 2202.53 1603.08C2301.34 1580.05 2397.82 1540.98 2490.78 1505.56" stroke="#048ACD" stroke-opacity="0.2" stroke-miterlimit="10"/>
<path d="M198.369 1159.36C255.068 1106.64 343.587 1113.02 409.851 1147.76C438.51 1162.8 464.489 1182.19 489.519 1203.11C522.234 1230.5 553.254 1260.49 586.757 1286.24C655.086 1338.78 734.661 1371.6 819.588 1380.35C885.186 1387.18 951.56 1382.34 1015.24 1364.76C1060.79 1352.19 1104.33 1331.76 1144.33 1303.96C1162.19 1291.56 1179.32 1277.79 1196.23 1263.63C1230.49 1234.87 1263.64 1204.24 1299.68 1178.8C1340.7 1149.89 1387.38 1127.74 1435.47 1125.01C1450.33 1124.17 1465.09 1124.85 1479.73 1127.77C1541.05 1140.02 1587.56 1186.94 1625.59 1242.34C1642.16 1266.37 1657.2 1291.9 1670.49 1316.81C1685.35 1344.66 1699.33 1372.73 1713.59 1399.55C1741.41 1452.44 1769.58 1501.54 1810.16 1537.24C1836.42 1560.36 1866.2 1575.7 1899.53 1586.31C1967.2 1607.64 2051.15 1607.41 2133.58 1592.93C2156.18 1588.97 2178.83 1584.07 2201.39 1578.61C2302.08 1554.09 2401.59 1518.12 2495.52 1488.75" stroke="#048ACD" stroke-opacity="0.2" stroke-miterlimit="10"/>
<path d="M199.013 1150.66C256.619 1099.06 344.894 1105.27 411.354 1139.91C440.07 1154.86 466.27 1174.28 491.184 1195.37C523.809 1223.06 554.322 1253.43 587.31 1279.91C654.411 1334.04 731.68 1369.64 816.225 1380.32C881.508 1388.63 947.41 1386.03 1011.16 1370.94C1056.99 1360.04 1100.79 1340.63 1141.24 1313.4C1159.29 1301.25 1176.54 1287.81 1193.76 1273.74C1228.36 1245.34 1261.98 1214.91 1298.34 1190.06C1339.75 1161.79 1386.45 1141 1434.74 1140.24C1449.49 1140.06 1464.05 1141.21 1478.29 1144.7C1538.34 1159.12 1582.82 1207.55 1620.78 1262.89C1637.37 1287.06 1652.77 1312.23 1666.82 1336.58C1682.5 1363.77 1697.5 1390.74 1712.8 1416.07C1742.63 1465.74 1772.15 1510.66 1812.49 1540.82C1838.63 1560.32 1867.14 1571.59 1899.35 1578.62C1964.8 1592.91 2048.29 1587.11 2131.26 1569.96C2154.08 1565.17 2176.94 1559.8 2199.86 1553.99C2302.36 1527.92 2404.9 1495.06 2499.91 1471.93" stroke="#048ACD" stroke-opacity="0.2" stroke-miterlimit="10"/>
<path d="M199.656 1141.96C258.113 1091.56 346.202 1097.52 412.938 1132.11C441.793 1147.04 468.05 1166.38 492.874 1187.76C525.384 1215.62 555.554 1246.48 587.886 1273.73C653.737 1329.29 728.804 1367.88 812.748 1380.45C877.796 1390.31 943.168 1390.02 1006.89 1377.22C1053.09 1368.04 1097.05 1349.61 1137.81 1322.96C1155.99 1311.14 1173.49 1297.88 1190.87 1283.92C1225.88 1255.81 1259.84 1225.74 1296.65 1201.46C1338.41 1173.91 1385.24 1154.31 1433.61 1155.68C1448.32 1156.09 1462.56 1157.86 1476.6 1161.82C1535.45 1178.46 1577.75 1228.29 1615.79 1283.68C1632.32 1307.94 1648.26 1332.87 1662.93 1356.67C1679.37 1383.3 1695.53 1409.12 1711.69 1432.87C1743.43 1479.47 1774.47 1519.97 1814.43 1544.62C1840.39 1560.57 1867.74 1567.62 1898.91 1571.11C1962.29 1578.34 2045.05 1567.02 2128.72 1547.31C2151.77 1541.84 2174.95 1535.84 2198.24 1529.67C2302.49 1502.15 2408.18 1472.21 2504.13 1455.35" stroke="#048ACD" stroke-opacity="0.2" stroke-miterlimit="10"/>
<path d="M200.301 1133.26C259.665 1083.98 347.51 1089.77 414.443 1124.25C443.355 1139.1 469.693 1158.49 494.541 1180.02C526.936 1208.04 556.762 1239.39 588.44 1267.4C652.982 1324.49 725.881 1365.83 809.385 1380.42C874.119 1391.76 938.961 1393.79 1002.75 1383.48C1049.24 1375.97 1093.51 1358.48 1134.67 1332.47C1153.03 1320.91 1170.72 1307.9 1188.2 1294.13C1223.56 1266.39 1257.98 1236.53 1295.06 1212.91C1337.2 1186.01 1384.06 1167.76 1432.63 1171.1C1447.16 1172.11 1461.27 1174.41 1474.96 1178.86C1532.49 1197.74 1572.87 1248.92 1610.72 1304.42C1627.33 1328.73 1643.66 1353.45 1659.09 1376.68C1676.35 1402.66 1693.53 1427.37 1710.78 1449.56C1744.47 1493.01 1777.09 1529.37 1816.64 1548.36C1842.5 1560.83 1868.54 1563.54 1898.7 1563.64C1960.06 1563.72 2042.11 1547.03 2126.45 1524.62C2149.66 1518.4 2173.19 1511.91 2196.85 1505.39C2302.9 1476.32 2411.71 1449.54 2508.64 1438.86" stroke="#048ACD" stroke-opacity="0.2" stroke-miterlimit="10"/>
<path d="M200.806 1124.58C261.077 1076.43 348.622 1082.13 415.807 1116.42C444.858 1131.24 471.334 1150.61 496.068 1172.3C528.372 1200.63 557.692 1232.36 588.855 1261.1C652.226 1319.7 722.843 1363.95 805.884 1380.41C870.245 1393.33 934.696 1397.64 998.534 1389.69C1045.39 1383.89 1089.83 1367.38 1131.38 1342.01C1149.85 1330.65 1167.72 1317.88 1185.53 1304.35C1221.24 1276.97 1256.21 1247.37 1293.51 1224.28C1336 1198.1 1382.99 1181.05 1431.7 1186.43C1446.18 1188.02 1460.03 1190.87 1473.46 1195.87C1529.72 1216.91 1568 1269.55 1605.84 1325.05C1622.48 1349.5 1639.26 1373.92 1655.36 1396.53C1673.44 1421.86 1691.64 1445.45 1709.92 1466.17C1745.52 1506.56 1779.96 1538.57 1818.92 1552.03C1844.81 1560.99 1869.47 1559.44 1898.51 1555.95C1957.72 1548.91 2039.25 1526.73 2124.22 1501.7C2147.65 1494.66 2171.51 1487.67 2195.48 1480.89C2303.42 1450.33 2415.18 1426.59 2513.17 1422.02" stroke="#048ACD" stroke-opacity="0.2" stroke-miterlimit="10"/>
<path d="M201.451 1115.88C262.573 1068.93 349.931 1074.38 417.37 1108.48C446.478 1123.22 473.035 1142.65 497.735 1164.56C529.925 1193.05 558.901 1225.27 589.41 1254.78C651.473 1314.9 719.945 1362.05 802.523 1380.38C866.569 1394.78 930.571 1401.46 994.458 1395.87C1041.6 1391.74 1086.28 1376.25 1128.24 1351.53C1146.83 1340.49 1164.95 1327.9 1182.92 1314.48C1219.04 1287.38 1254.41 1258.07 1292.03 1235.56C1334.91 1210.03 1381.98 1194.25 1430.77 1201.77C1445.07 1203.96 1458.8 1207.34 1471.88 1212.83C1526.96 1236.09 1563.13 1290.18 1600.89 1345.63C1617.53 1370.07 1634.77 1394.34 1651.56 1416.33C1670.37 1440.95 1689.76 1463.54 1709.05 1482.64C1746.6 1519.88 1782.87 1547.56 1821.09 1555.5C1847.16 1560.92 1870.23 1555.08 1898.25 1548.2C1955.45 1534.02 2036.26 1506.45 2121.91 1478.73C2145.57 1471 2169.62 1463.41 2194.04 1456.33C2303.79 1424.22 2418.71 1403.55 2517.64 1405.25" stroke="#048ACD" stroke-opacity="0.2" stroke-miterlimit="10"/>
<path d="M202.095 1107.18C264.124 1061.36 351.239 1066.63 418.955 1100.68C448.201 1115.4 474.897 1134.8 499.483 1156.87C531.501 1185.61 560.132 1218.32 589.963 1248.45C650.718 1310.1 716.964 1360.08 799.103 1380.43C862.834 1396.32 926.306 1405.32 990.322 1402.13C1037.83 1399.72 1082.68 1385.2 1125.09 1361.04C1143.87 1350.26 1162.17 1337.92 1180.39 1324.67C1216.85 1297.94 1252.69 1268.82 1290.63 1246.91C1333.91 1222.02 1380.97 1207.46 1429.98 1217.08C1444.24 1219.85 1457.7 1223.77 1470.47 1229.9C1524.27 1255.32 1558.39 1310.78 1596.09 1366.31C1612.76 1390.9 1630.45 1414.87 1647.94 1436.37C1667.51 1460.43 1687.98 1481.82 1708.3 1499.44C1747.76 1533.62 1786.12 1556.91 1823.47 1559.36C1849.77 1561.16 1871.27 1551.17 1898.12 1540.78C1953.21 1519.4 2033.4 1486.52 2119.64 1456.04C2143.46 1447.56 2167.91 1439.4 2192.64 1432.04C2304.19 1398.39 2422.16 1380.82 2522.08 1388.71" stroke="#048ACD" stroke-opacity="0.2" stroke-miterlimit="10"/>
<path d="M202.738 1098.48C265.676 1053.78 352.546 1058.88 420.458 1092.83C449.762 1107.46 476.596 1126.84 501.148 1149.13C533.052 1178.03 561.258 1211.18 590.459 1242.21C650.043 1305.36 714.007 1358.26 795.683 1380.48C859.099 1397.85 922.122 1409.22 986.128 1408.47C1033.95 1407.86 1079.03 1394.23 1121.83 1370.72C1140.74 1360.27 1159.2 1348.05 1177.66 1334.96C1214.56 1308.66 1250.78 1279.69 1288.97 1258.44C1332.59 1234.27 1379.78 1220.91 1428.87 1232.66C1442.95 1236.04 1456.23 1240.57 1468.71 1247.1C1521.25 1274.68 1553.34 1331.66 1590.97 1387.13C1607.71 1411.77 1625.72 1435.47 1643.96 1456.41C1664.35 1479.82 1685.84 1500.09 1707.17 1516.1C1748.58 1547.14 1789 1565.76 1825.46 1563.07C1851.98 1561.11 1871.84 1547.06 1897.74 1533.2C1950.82 1504.67 2030.27 1466.27 2117.21 1433.23C2141.27 1424.06 2165.98 1415.35 2191.14 1407.56C2304.5 1372.37 2425.57 1357.95 2526.54 1371.94" stroke="#048ACD" stroke-opacity="0.2" stroke-miterlimit="10"/>
<path d="M203.382 1089.78C267.145 1046.14 353.797 1051.21 421.961 1084.97C451.404 1099.58 478.238 1118.95 502.733 1141.33C534.545 1170.53 562.385 1204.03 590.93 1235.83C649.207 1300.5 711.002 1356.16 792.239 1380.39C855.421 1399.31 917.938 1413.13 981.968 1414.59C1030.16 1415.71 1075.4 1403.05 1118.66 1380.09C1137.76 1369.9 1156.41 1357.93 1175.03 1344.96C1212.33 1318.94 1248.95 1290.25 1287.46 1269.59C1331.48 1246.06 1378.72 1233.83 1427.98 1247.77C1442.02 1251.73 1455.03 1256.81 1467.25 1263.89C1518.53 1293.77 1548.56 1351.99 1586.07 1407.62C1602.75 1432.35 1621.29 1455.81 1640.22 1476.12C1661.42 1498.88 1683.88 1518.12 1706.29 1532.57C1749.52 1560.49 1792.25 1574.26 1827.63 1566.54C1854.55 1560.72 1872.67 1542.76 1897.39 1525.39C1948.38 1489.66 2027.19 1445.94 2114.82 1410.2C2139.09 1400.21 2164.01 1391.03 2189.61 1382.94C2304.86 1346.27 2428.88 1334.89 2530.93 1355.12" stroke="#048ACD" stroke-opacity="0.2" stroke-miterlimit="10"/>
<path d="M203.97 1081.16C268.584 1038.73 355.048 1043.55 423.409 1077.2C452.908 1091.72 479.963 1111.13 504.286 1133.75C535.984 1163.12 563.422 1197.19 591.37 1229.67C648.419 1295.92 707.989 1354.42 788.763 1380.52C851.572 1401.01 913.698 1417.12 977.777 1420.93C1026.19 1423.79 1071.74 1412.08 1115.4 1389.77C1134.62 1379.91 1153.52 1368.11 1172.38 1355.31C1210.03 1329.65 1247.06 1301.25 1286.03 1281.15C1330.38 1258.35 1377.68 1247.26 1427.23 1263.36C1441.15 1267.84 1453.98 1273.52 1465.94 1281.15C1515.95 1313.2 1543.95 1372.92 1581.38 1428.51C1598.09 1453.37 1617.08 1476.53 1636.7 1496.36C1658.72 1518.47 1682.28 1536.65 1705.65 1549.57C1750.78 1574.42 1795.57 1583.17 1830.06 1570.68C1857.14 1560.82 1873.68 1539.07 1897.45 1518.23C1946.33 1475.29 2024.52 1426.25 2112.76 1387.89C2137.2 1377.16 2162.51 1367.41 2188.35 1358.99C2305.34 1320.85 2432.51 1312.41 2535.5 1338.91" stroke="#048ACD" stroke-opacity="0.2" stroke-miterlimit="10"/>
<path d="M204.613 1072.45C270.134 1031.15 356.356 1035.8 425.051 1069.31C454.688 1083.82 481.8 1103.14 506.09 1125.98C537.673 1155.51 564.686 1190.02 592.062 1223.32C647.859 1291.02 705.228 1352.49 785.399 1380.48C847.894 1402.47 909.514 1421.03 973.616 1427.05C1022.4 1431.64 1068.12 1420.9 1112.17 1399.23C1131.58 1389.62 1150.66 1378.07 1169.69 1365.38C1207.69 1340.1 1245.18 1311.89 1284.4 1292.46C1329.07 1270.25 1376.51 1260.35 1426.17 1278.72C1439.98 1283.87 1452.61 1290.01 1464.22 1298.13C1512.96 1332.34 1538.86 1393.52 1576.28 1449.1C1593.08 1474.02 1612.45 1496.97 1632.76 1516.17C1655.54 1537.72 1680.18 1554.7 1704.63 1566.07C1751.67 1587.85 1798.49 1591.44 1832.17 1574.23C1859.47 1560.25 1874.37 1534.8 1897.04 1510.5C1943.83 1460.37 2021.45 1405.92 2110.31 1364.95C2134.98 1353.53 2160.56 1343.23 2186.76 1334.46C2305.56 1294.77 2435.85 1289.49 2539.83 1322.17" stroke="#048ACD" stroke-opacity="0.2" stroke-miterlimit="10"/>
<path d="M205.177 1063.7C271.606 1023.51 357.502 1027.93 426.474 1061.4C456.169 1075.82 483.444 1095.26 507.676 1118.18C539.168 1148.02 565.813 1182.88 592.535 1216.94C647.024 1286.16 702.167 1350.47 781.957 1380.39C844.136 1403.86 905.307 1424.8 969.4 1433.25C1018.5 1439.64 1064.44 1429.79 1108.94 1408.69C1128.54 1399.33 1147.73 1387.98 1167.08 1375.52C1205.48 1350.51 1243.38 1322.59 1282.92 1303.75C1327.93 1282.26 1375.47 1273.41 1425.29 1293.97C1438.98 1299.64 1451.37 1306.48 1462.72 1315.15C1510.28 1351.57 1534.12 1414.13 1571.49 1469.79C1588.23 1494.79 1608.14 1517.5 1629.12 1536.08C1652.72 1556.97 1678.32 1572.92 1703.86 1582.73C1752.72 1601.4 1801.44 1599.84 1834.53 1577.95C1861.83 1559.83 1875.31 1530.69 1897.02 1502.92C1941.72 1445.59 2018.62 1385.76 2108.16 1342.09C2133.05 1329.84 2158.97 1319.05 2185.48 1310.01C2306.16 1268.84 2439.41 1266.59 2544.44 1305.38" stroke="#048ACD" stroke-opacity="0.2" stroke-miterlimit="10"/>
<path d="M205.82 1054.99C273.099 1016.01 358.809 1020.19 427.977 1053.55C457.811 1067.94 485.143 1087.3 509.284 1110.52C540.662 1140.52 566.825 1175.9 592.949 1210.64C646.211 1281.44 699.128 1348.59 778.455 1380.39C840.319 1405.34 901.066 1428.79 965.183 1439.46C1014.59 1447.65 1060.76 1438.69 1105.66 1418.23C1125.38 1409.2 1144.81 1398.02 1164.27 1385.76C1203.02 1361.12 1241.39 1333.4 1281.24 1315.14C1326.64 1294.3 1374.24 1286.58 1424.22 1309.33C1437.87 1315.58 1450 1322.97 1461 1332.13C1507.29 1370.72 1529.03 1434.73 1566.4 1490.39C1583.21 1515.45 1603.43 1537.89 1625.26 1555.95C1649.59 1576.14 1676.29 1591.03 1702.85 1599.23C1753.54 1614.91 1804.06 1608.02 1836.55 1581.44C1863.86 1559.17 1876 1526.42 1896.54 1495.14C1939.08 1430.68 2015.4 1365.45 2105.62 1319.08C2130.75 1306.15 2156.86 1294.75 2183.87 1285.34C2306.36 1242.62 2442.78 1243.44 2548.74 1288.5" stroke="#048ACD" stroke-opacity="0.2" stroke-miterlimit="10"/>
<path d="M206.463 1046.29C274.65 1008.44 360.059 1012.52 429.48 1045.69C459.371 1060 486.865 1079.47 510.949 1102.78C542.155 1133.02 568.032 1168.81 593.502 1204.32C645.512 1276.56 696.204 1346.54 775.035 1380.44C836.527 1406.96 896.824 1432.78 961.047 1445.72C1010.84 1455.77 1057.24 1447.7 1102.51 1427.74C1122.42 1418.97 1141.98 1408.12 1161.66 1395.89C1200.76 1371.61 1239.67 1344.16 1279.7 1326.51C1325.5 1306.31 1373.28 1299.7 1423.24 1324.75C1436.76 1331.52 1448.79 1339.57 1459.45 1349.22C1504.54 1390.03 1524.18 1455.5 1561.41 1511.18C1578.25 1536.38 1598.91 1558.52 1621.36 1576.05C1646.51 1595.59 1674.26 1609.5 1701.82 1616.08C1754.42 1628.7 1806.54 1616.59 1838.66 1585.35C1865.88 1558.87 1876.68 1522.5 1896.21 1487.84C1936.57 1416.12 2012.4 1345.54 2103.24 1296.55C2128.53 1282.87 2155.03 1270.9 2182.36 1261.22C2306.65 1216.96 2446.1 1220.88 2553.06 1272.12" stroke="#048ACD" stroke-opacity="0.2" stroke-miterlimit="10"/>
<path d="M207.049 1037.67C276.144 1000.94 361.309 1004.85 431.007 1037.97C461.037 1052.26 488.588 1071.65 512.639 1095.18C543.811 1125.64 569.205 1161.95 594.078 1198.13C644.78 1271.9 693.328 1344.78 771.695 1380.54C832.953 1408.61 892.664 1436.82 956.991 1452.03C1007.1 1463.89 1053.77 1456.63 1099.38 1437.39C1119.43 1428.96 1139.23 1418.28 1159.15 1406.22C1198.66 1382.23 1237.97 1355.05 1278.32 1337.99C1324.46 1318.52 1372.41 1312.88 1422.47 1340.2C1435.87 1347.5 1447.71 1356.14 1458.03 1366.29C1501.8 1409.34 1519.44 1476.1 1556.61 1531.87C1573.53 1557.12 1594.59 1579.05 1617.72 1595.95C1643.62 1614.93 1672.46 1627.64 1701.1 1632.67C1755.6 1642.22 1809.27 1624.96 1841.07 1588.99C1868.01 1558.42 1877.59 1518.26 1896.17 1480.12C1934.26 1401.08 2009.63 1325.3 2101.15 1273.61C2126.59 1259.19 2153.44 1246.73 2181.14 1236.69C2307.15 1190.83 2449.69 1197.76 2557.73 1255.25" stroke="#048ACD" stroke-opacity="0.2" stroke-miterlimit="10"/>
<path d="M207.695 1028.97C277.697 993.361 362.619 997.102 432.57 1030.03C462.657 1044.24 490.347 1063.6 514.364 1087.35C545.365 1118.06 570.391 1154.72 594.691 1191.72C644.166 1267.08 690.407 1342.73 768.392 1380.43C829.335 1409.99 888.563 1440.79 952.973 1458.13C1003.39 1471.79 1050.29 1465.41 1096.3 1446.82C1116.45 1438.58 1136.43 1428.16 1156.6 1416.27C1196.54 1392.7 1236.18 1365.75 1276.89 1349.2C1323.43 1330.37 1371.44 1325.87 1421.66 1355.37C1435.01 1363.25 1446.54 1372.53 1456.65 1383.14C1499.15 1428.35 1514.76 1496.62 1551.86 1552.34C1568.72 1577.67 1590.31 1599.36 1614.11 1615.64C1640.83 1633.96 1670.63 1645.64 1700.37 1649.11C1756.77 1655.6 1811.97 1633.2 1843.38 1592.44C1870.1 1557.68 1878.48 1513.88 1896.04 1472.34C1932.07 1386.25 2006.7 1304.94 2098.97 1250.62C2124.71 1235.42 2151.74 1222.36 2179.83 1212.1C2307.54 1164.86 2453.11 1174.89 2562.14 1238.57" stroke="#048ACD" stroke-opacity="0.2" stroke-miterlimit="10"/>
<path d="M208.339 1020.27C279.191 985.864 363.927 989.353 434.074 1022.18C464.299 1036.36 492.07 1055.78 515.972 1079.69C546.858 1110.56 571.541 1147.71 595.187 1185.48C643.41 1262.28 687.45 1340.91 764.972 1380.48C825.599 1411.52 884.322 1444.78 948.779 1464.47C999.509 1479.93 1046.63 1474.45 1093.09 1456.42C1113.37 1448.51 1133.6 1438.26 1154.01 1426.54C1194.3 1403.34 1234.4 1376.59 1275.45 1360.76C1322.33 1342.66 1370.56 1339.04 1420.77 1370.98C1434 1379.38 1445.35 1389.27 1455.06 1400.45C1496.37 1447.89 1509.8 1517.56 1546.89 1573.27C1563.78 1598.74 1585.81 1620.14 1610.38 1635.85C1637.92 1653.52 1668.76 1664.23 1699.5 1666.08C1757.75 1669.59 1814.49 1642.04 1845.64 1596.46C1872.17 1557.66 1879.41 1510.13 1895.85 1465.01C1929.78 1371.71 2003.83 1285 2096.59 1228.08C2122.49 1212.15 2149.86 1198.59 2178.38 1187.9C2308.11 1139.15 2456.77 1152.19 2566.79 1222.06" stroke="#048ACD" stroke-opacity="0.2" stroke-miterlimit="10"/>
<path d="M208.982 1011.57C280.661 978.228 365.177 981.686 435.577 1014.32C465.859 1028.42 493.769 1047.81 517.638 1071.95C548.409 1102.99 572.691 1140.71 595.74 1179.16C642.654 1257.48 684.55 1339 761.47 1380.47C821.783 1413 879.999 1448.71 944.562 1470.67C995.602 1487.94 1042.95 1483.34 1089.73 1465.9C1110.19 1458.25 1130.61 1448.24 1151.18 1436.64C1191.87 1413.72 1232.38 1387.26 1273.75 1372.02C1321.02 1354.56 1369.44 1352.05 1419.68 1386.21C1432.87 1395.18 1443.95 1405.62 1453.4 1417.35C1493.44 1466.95 1504.9 1538.05 1541.85 1593.79C1558.82 1619.32 1581.25 1640.49 1606.43 1655.66C1634.79 1672.69 1666.68 1682.42 1698.41 1682.52C1758.57 1683.1 1816.72 1650.43 1847.67 1599.96C1873.86 1557.14 1880.02 1505.8 1895.45 1457.28C1927.28 1356.78 2000.7 1264.75 2094.14 1205.14C2120.19 1188.46 2147.91 1174.41 2176.71 1163.31C2308.25 1113.01 2460.03 1129.21 2571.1 1205.18" stroke="#048ACD" stroke-opacity="0.2" stroke-miterlimit="10"/>
<path d="M209.488 1002.89C282.074 970.675 366.346 973.962 437.023 1006.55C467.445 1020.62 495.492 1039.99 519.247 1064.29C549.928 1095.63 573.76 1133.65 596.155 1172.86C641.842 1252.76 681.488 1336.98 757.969 1380.46C817.91 1414.57 875.644 1452.87 940.264 1476.82C991.5 1496.05 1039.19 1492.18 1086.42 1475.3C1107.07 1467.9 1127.59 1458.09 1148.4 1446.66C1189.44 1424.1 1230.42 1397.85 1272.1 1383.19C1319.77 1366.37 1368.3 1364.92 1418.64 1401.34C1431.71 1410.85 1442.61 1421.89 1451.71 1434.11C1490.48 1485.87 1499.84 1558.43 1536.73 1614.25C1553.64 1639.86 1576.52 1660.74 1602.47 1675.34C1631.58 1691.8 1664.55 1700.33 1697.31 1698.96C1759.38 1696.48 1818.96 1658.83 1849.62 1603.39C1875.54 1556.48 1880.49 1501.49 1894.88 1449.45C1924.56 1341.83 1997.41 1244.39 2091.52 1182.08C2117.82 1164.71 2145.77 1149.97 2174.97 1138.66C2308.31 1086.82 2463.12 1106.12 2575.19 1188.27" stroke="#048ACD" stroke-opacity="0.2" stroke-miterlimit="10"/>
<path d="M210.132 994.191C315.324 949.753 442.045 975.159 520.913 1056.55C613.763 1152.35 641.327 1312.81 754.607 1380.43C814.232 1416.02 871.46 1456.77 936.185 1483C1010.29 1513.1 1076.77 1493.94 1145.87 1456.85C1234.66 1409.24 1323.45 1344.17 1417.8 1416.74C1486.04 1469.22 1486.43 1566.01 1531.94 1634.93C1567.99 1689.55 1632.65 1721.22 1696.62 1715.68C1760.59 1710.14 1821.67 1667.56 1852.06 1607.17C1877.72 1556.29 1881.59 1497.5 1894.95 1441.92C1930.21 1295.02 2038.62 1167.65 2173.85 1114.32C2309.08 1060.99 2466.89 1083.25 2579.98 1171.73" stroke="#048ACD" stroke-opacity="0.2" stroke-miterlimit="10"/>
<path d="M207.989 1009.53C309.557 971.833 433.646 999.792 512.896 1079.25C552.591 1118.97 581.277 1169.41 609.853 1218.8C639.084 1269.5 668.066 1319.18 708.715 1356.15C721.77 1368.08 736.099 1378.71 751.967 1387.49C811.659 1420.57 868.743 1458.41 933.511 1484.06C1006.87 1513.15 1072.82 1496.3 1140.66 1463.09C1156.28 1455.46 1171.82 1447.41 1187.41 1439.64C1233.17 1416.73 1278.86 1396.7 1326.14 1400.84C1352.54 1403.2 1379.5 1412.89 1406.98 1433.58C1474.91 1484.62 1478.95 1575.67 1525.03 1639.62C1531.21 1648.09 1538.06 1655.93 1545.5 1663.09C1582.69 1698.61 1635.26 1717.31 1687.36 1711.28C1749.97 1704.05 1809.6 1661.31 1840.31 1602.01C1866.37 1551.77 1871.96 1493.82 1886.69 1439.2C1912.1 1344.95 1967.64 1258.96 2040.5 1196.43C2079.54 1163.08 2123.39 1136.51 2170.34 1118.82C2255.97 1086.45 2350.28 1084.2 2437.1 1108.91C2487.04 1123.09 2534.34 1146.4 2575.81 1178.21" stroke="#048ACD" stroke-opacity="0.2" stroke-miterlimit="10"/>
<path d="M205.789 1024.95C303.79 993.913 425.19 1024.51 504.765 1102.12C544.755 1141.06 574.597 1189.51 604.314 1236.4C634.744 1284.53 664.666 1330.96 705.846 1365.61C719.058 1376.8 733.464 1386.63 749.293 1394.77C808.913 1425.36 866.016 1460.41 930.861 1485.25C1003.56 1513.39 1068.93 1498.58 1135.54 1469.38C1150.88 1462.66 1166.17 1455.66 1181.35 1448.83C1226.04 1428.83 1270.14 1411.59 1316.33 1417.29C1342.24 1420.52 1368.8 1430.43 1396.03 1450.45C1463.64 1500.05 1471.36 1585.49 1518.01 1644.47C1524.29 1652.28 1531.1 1659.48 1538.59 1666.06C1575.66 1698.45 1627.15 1714.57 1678.01 1707.18C1739.18 1698.22 1797.52 1655.42 1828.45 1597.01C1854.83 1547.36 1862.23 1490.43 1878.4 1436.7C1906.17 1344.1 1963.18 1259.62 2036.47 1198.73C2075.93 1166.17 2120 1140.49 2166.87 1123.6C2252.41 1092.75 2346.12 1091.53 2432.96 1116.39C2482.76 1130.59 2530.01 1153.62 2571.69 1184.97" stroke="#048ACD" stroke-opacity="0.2" stroke-miterlimit="10"/>
<path d="M203.506 1040.32C297.883 1016.02 416.709 1049.08 496.689 1124.9C536.952 1162.94 567.892 1209.47 598.693 1253.95C630.321 1299.5 661.208 1342.82 702.813 1374.96C716.24 1385.32 730.583 1394.38 746.456 1401.94C806.142 1430.01 863.159 1462.07 927.966 1486.28C1000.03 1513.25 1064.82 1500.83 1130.08 1475.45C1145.15 1469.64 1160.11 1463.63 1174.96 1457.78C1218.53 1440.78 1261.17 1426.31 1306.2 1433.51C1331.67 1437.54 1357.87 1447.8 1384.84 1467.15C1452.18 1515.22 1463.38 1595.17 1510.73 1649.02C1516.96 1656.18 1524.01 1662.7 1531.38 1668.59C1568.29 1697.93 1618.6 1711.4 1668.35 1702.5C1728.15 1691.85 1785.12 1648.95 1816.36 1591.48C1843.18 1542.4 1852.19 1486.46 1869.8 1433.61C1899.97 1342.57 1958.11 1259.61 2031.99 1200.48C2071.84 1168.56 2116.16 1143.91 2162.96 1127.82C2248.45 1098.41 2341.5 1098.31 2428.51 1123.28C2478.17 1137.51 2525.39 1160.4 2567.2 1191.22" stroke="#048ACD" stroke-opacity="0.2" stroke-miterlimit="10"/>
<path d="M201.306 1055.74C292.057 1038.18 408.252 1073.8 488.615 1147.69C529.231 1184.88 561.13 1229.51 593.13 1271.41C625.818 1314.41 657.866 1354.51 699.976 1384.2C713.479 1393.77 727.924 1402.16 743.815 1409C803.372 1434.66 860.522 1463.77 925.291 1487.34C996.612 1513.3 1060.92 1503.11 1124.93 1481.61C1139.72 1476.71 1154.36 1471.69 1168.82 1466.91C1211.32 1452.82 1252.45 1441.2 1296.36 1449.82C1321.35 1454.72 1347.12 1465.42 1373.95 1483.94C1441.09 1530.4 1455.9 1604.82 1503.74 1653.65C1510.07 1660.15 1517.08 1666.03 1524.5 1671.34C1561.3 1697.56 1610.52 1708.43 1659.04 1698.18C1717.4 1685.79 1772.9 1642.73 1804.47 1586.34C1831.62 1537.84 1842.5 1482.86 1861.55 1430.89C1894.08 1341.5 1953.6 1260 2027.85 1202.59C2068.18 1171.37 2112.59 1147.63 2159.45 1132.32C2244.85 1104.43 2337.37 1105.43 2424.32 1130.48C2473.84 1144.73 2521.02 1167.35 2563.03 1197.7" stroke="#048ACD" stroke-opacity="0.2" stroke-miterlimit="10"/>
<path d="M199.105 1071.17C286.371 1060.32 399.715 1098.46 480.54 1170.47C521.428 1206.75 554.508 1249.53 587.649 1288.94C621.535 1329.35 654.466 1366.29 697.164 1393.58C710.824 1402.4 725.345 1410 741.117 1416.14C800.683 1439.37 857.748 1465.49 922.535 1488.34C993.168 1513.21 1057.01 1505.26 1119.69 1487.71C1134.27 1483.63 1148.6 1479.74 1162.65 1475.9C1204 1464.67 1243.57 1455.98 1286.53 1466.13C1311.02 1471.91 1336.51 1482.65 1363.05 1500.72C1429.64 1546.07 1448.29 1614.51 1496.69 1658.36C1503.13 1664.2 1510.16 1669.37 1517.53 1674.03C1554.22 1697.13 1602.3 1705.49 1649.64 1693.81C1706.7 1679.65 1760.77 1636.56 1792.65 1581.12C1820.19 1533.27 1832.73 1479.2 1853.29 1428.17C1888.26 1340.48 1949.04 1260.47 2023.77 1204.62C2064.58 1174.1 2109.15 1151.33 2155.94 1136.82C2241.16 1110.39 2333.1 1112.57 2420.21 1137.73C2469.68 1152.07 2516.72 1174.35 2558.86 1204.18" stroke="#048ACD" stroke-opacity="0.2" stroke-miterlimit="10"/>
<path d="M196.881 1086.45C280.522 1082.34 391.292 1122.95 472.466 1193.26C513.707 1228.69 547.804 1269.49 582.029 1306.48C617.057 1344.4 651.067 1378.07 694.132 1402.93C708.008 1410.93 722.49 1417.88 738.281 1423.31C797.833 1443.97 854.916 1467.29 919.722 1489.42C989.61 1513.28 1052.98 1507.56 1114.4 1493.9C1128.71 1490.72 1142.71 1487.82 1156.43 1484.97C1196.65 1476.73 1234.77 1470.81 1276.56 1482.46C1300.64 1489.17 1325.74 1500.14 1352.02 1517.54C1418.29 1561.44 1440.61 1624.27 1489.57 1663.02C1496.1 1668.2 1503.09 1672.72 1510.43 1676.76C1547.01 1696.72 1593.94 1702.57 1640.11 1689.46C1695.72 1673.56 1748.36 1630.45 1780.6 1575.87C1808.46 1528.6 1822.79 1475.42 1844.74 1425.36C1882.06 1339.32 1944.18 1260.86 2019.33 1206.64C2060.56 1176.9 2105.36 1155.02 2152.15 1141.37C2237.34 1116.38 2328.61 1119.68 2415.75 1144.98C2465.13 1159.26 2512.15 1181.41 2554.35 1210.79" stroke="#048ACD" stroke-opacity="0.2" stroke-miterlimit="10"/>
<path d="M194.68 1101.87C274.754 1104.42 382.835 1147.66 464.391 1216.04C505.905 1250.56 541.181 1289.51 576.466 1323.95C612.693 1359.29 647.643 1389.71 691.238 1412.26C705.19 1419.45 719.83 1425.66 735.525 1430.54C795.087 1448.76 852.083 1469.09 916.908 1490.51C986.133 1513.41 1048.94 1509.87 1109.05 1500.16C1123.09 1497.9 1136.82 1495.91 1150.15 1494.13C1189.22 1488.74 1225.85 1485.81 1266.53 1498.88C1290.12 1506.47 1314.91 1517.7 1340.85 1534.38C1406.8 1576.83 1432.8 1634.06 1482.3 1667.7C1488.94 1672.22 1496.03 1676.08 1503.33 1679.48C1539.72 1696.26 1585.64 1699.57 1630.57 1685.11C1684.83 1667.53 1736.09 1624.31 1768.58 1570.76C1796.83 1524.13 1812.99 1471.98 1836.29 1422.75C1876.18 1338.38 1939.56 1261.41 2015 1208.86C2056.71 1179.82 2101.6 1158.86 2148.44 1145.98C2233.54 1122.51 2324.28 1126.91 2411.5 1152.27C2460.75 1166.57 2507.66 1188.52 2550.13 1217.36" stroke="#048ACD" stroke-opacity="0.2" stroke-miterlimit="10"/>
<path d="M192.481 1117.3C268.93 1126.58 374.265 1172.54 456.318 1238.83C498.127 1272.58 534.42 1309.55 570.986 1341.47C608.329 1374.17 644.383 1401.46 688.427 1421.64C702.536 1428.09 717.195 1433.58 732.909 1437.74C792.48 1453.53 849.414 1471.01 914.259 1491.7C982.738 1513.6 1045.16 1512.35 1103.84 1506.4C1117.61 1505.05 1131.01 1504.04 1144.01 1503.25C1181.87 1500.81 1217.14 1500.7 1256.7 1515.19C1279.8 1523.65 1304.25 1535.02 1329.96 1551.16C1395.59 1592.18 1425.26 1643.8 1475.26 1672.42C1481.91 1676.21 1489.05 1679.5 1496.31 1682.25C1532.59 1695.91 1577.28 1696.66 1621.18 1680.74C1673.99 1661.42 1723.96 1618.14 1756.67 1565.48C1785.29 1519.36 1803.13 1468.26 1827.88 1419.91C1870.12 1337.2 1934.84 1261.77 2010.84 1210.83C2053.03 1182.49 2098.08 1162.5 2144.85 1150.42C2229.91 1128.39 2319.99 1133.91 2407.23 1159.41C2456.34 1173.73 2503.21 1195.41 2545.88 1223.78" stroke="#048ACD" stroke-opacity="0.2" stroke-miterlimit="10"/>
<path d="M190.199 1132.66C263.081 1148.61 365.646 1197.14 448.243 1261.61C490.325 1294.46 527.798 1329.57 565.423 1358.93C603.908 1389.14 640.902 1413.18 685.452 1430.91C699.719 1436.61 714.454 1441.31 730.13 1444.82C789.686 1458.04 846.558 1472.67 911.503 1492.71C979.236 1513.59 1041.24 1514.49 1098.61 1512.51C1112.1 1512.06 1125.25 1512.1 1137.85 1512.24C1174.56 1512.66 1208.33 1515.53 1246.87 1531.49C1269.47 1540.84 1293.62 1552.47 1319.07 1567.95C1384.38 1607.52 1417.78 1653.46 1468.35 1677.1C1475.11 1680.24 1482.26 1682.8 1489.57 1684.98C1525.73 1695.51 1569.34 1693.67 1612 1676.4C1663.45 1655.39 1711.96 1611.95 1745.01 1560.38C1774.03 1514.9 1793.66 1464.69 1819.84 1417.23C1864.44 1336.15 1930.58 1262.33 2006.93 1212.97C2049.53 1185.41 2094.81 1166.31 2141.51 1155.04C2226.38 1134.47 2315.94 1141.08 2403.29 1166.78C2452.26 1181.13 2499.16 1202.58 2541.9 1230.51" stroke="#048ACD" stroke-opacity="0.2" stroke-miterlimit="10"/>
<path d="M187.999 1148.08C257.256 1170.77 357.247 1221.78 440.169 1284.4C482.604 1316.39 521.094 1349.53 559.803 1376.48C599.486 1404.11 637.445 1425.04 682.558 1440.23C696.959 1445.06 711.794 1449.09 727.432 1451.97C786.998 1462.75 843.807 1474.53 908.747 1493.71C975.817 1513.64 1037.35 1516.77 1093.37 1518.61C1106.6 1519.07 1119.42 1520.1 1131.68 1521.23C1167.24 1524.5 1199.53 1530.37 1236.95 1547.75C1259.15 1558.02 1282.82 1569.82 1308.09 1584.68C1373.08 1622.81 1410.17 1663.14 1461.28 1681.68C1468.14 1684.15 1475.26 1686.08 1482.52 1687.62C1518.58 1695.02 1561.04 1690.67 1602.53 1671.97C1652.53 1649.22 1699.75 1605.73 1733.02 1555.04C1762.43 1510.21 1783.73 1460.92 1811.34 1414.33C1858.38 1334.96 1925.83 1262.55 2002.55 1214.91C2045.71 1188.11 2090.99 1169.87 2137.75 1159.37C2222.53 1140.32 2311.49 1147.98 2398.91 1173.72C2447.74 1188.1 2494.54 1209.36 2537.46 1236.69" stroke="#048ACD" stroke-opacity="0.2" stroke-miterlimit="10"/>
<path d="M185.857 1163.42C251.49 1192.85 348.849 1246.41 432.095 1307.19C474.745 1338.35 514.391 1369.49 554.322 1394C595.066 1419.07 634.104 1436.73 679.747 1449.62C694.305 1453.69 709.16 1457 724.735 1459.11C784.286 1467.32 841.115 1476.31 906.016 1494.85C972.341 1513.77 1033.48 1519.19 1088.17 1524.85C1101.11 1526.21 1113.6 1528.24 1125.54 1530.36C1159.89 1536.57 1190.76 1545.34 1227.12 1564.05C1248.82 1575.21 1272.19 1587.27 1297.12 1601.41C1361.85 1638.01 1402.61 1672.74 1454.16 1686.34C1461.11 1688.15 1468.33 1689.41 1475.48 1690.26C1511.42 1694.53 1552.74 1687.67 1592.97 1667.48C1641.61 1643.05 1687.46 1599.45 1721.03 1549.71C1750.84 1505.52 1773.87 1457.2 1802.93 1411.5C1852.32 1333.78 1921.19 1262.96 1998.31 1216.83C2041.89 1190.81 2087.4 1173.45 2134.08 1163.76C2218.82 1146.14 2307.19 1154.98 2394.65 1180.87C2443.34 1195.27 2490.17 1216.31 2533.21 1243.11" stroke="#048ACD" stroke-opacity="0.2" stroke-miterlimit="10"/>
<path d="M183.575 1178.79C245.722 1214.93 340.311 1271.07 424.02 1329.97C467.024 1360.29 507.71 1389.59 548.759 1411.46C590.702 1433.96 630.704 1448.51 676.772 1458.88C691.488 1462.22 706.419 1464.73 721.956 1466.2C781.516 1471.97 838.201 1478.05 903.179 1495.79C968.839 1513.76 1029.45 1521.49 1082.85 1530.89C1095.53 1533.17 1107.69 1536.18 1119.29 1539.29C1152.49 1548.36 1181.87 1560.11 1217.12 1580.25C1238.28 1592.36 1261.45 1604.53 1286.12 1618C1350.53 1653.16 1395.02 1682.2 1447.07 1690.77C1454.12 1691.92 1461.3 1692.55 1468.49 1692.82C1504.33 1693.96 1544.47 1684.45 1583.61 1662.89C1630.81 1636.71 1675.36 1593.06 1709.1 1544.3C1739.37 1500.67 1764.05 1453.26 1794.49 1408.53C1846.24 1332.45 1916.52 1263.24 1993.98 1218.69C2038.05 1193.37 2083.72 1176.98 2130.41 1168.14C2215.06 1152.05 2302.76 1162.01 2390.29 1187.95C2438.9 1202.3 2485.63 1223.14 2528.82 1249.56" stroke="#048ACD" stroke-opacity="0.2" stroke-miterlimit="10"/>
<path d="M181.374 1194.21C239.897 1237.09 331.912 1295.7 415.946 1352.76C459.221 1382.16 501.006 1409.55 543.139 1429.01C586.28 1448.93 627.304 1460.29 673.821 1468.29C688.613 1470.82 703.702 1472.59 719.2 1473.42C778.746 1476.62 835.393 1480 900.447 1496.93C965.362 1513.9 1025.66 1523.97 1077.5 1537.16C1089.99 1540.4 1101.74 1544.34 1112.96 1548.53C1145.01 1560.45 1172.92 1575.33 1207.12 1596.8C1227.86 1609.85 1250.56 1622.18 1275.06 1635.04C1339.22 1668.8 1387.37 1692.1 1439.91 1695.65C1447.06 1696.14 1454.26 1696.05 1461.41 1695.68C1497.14 1693.69 1536.13 1681.67 1574.1 1658.68C1619.94 1630.82 1663.11 1587.06 1697.16 1539.24C1727.74 1496.2 1754.25 1449.82 1786.12 1405.97C1840.28 1331.46 1911.85 1263.87 1989.73 1220.96C2034.27 1196.34 2080.03 1180.87 2126.73 1172.89C2211.2 1158.26 2298.38 1169.31 2386.02 1195.45C2434.57 1209.88 2481.17 1230.39 2524.56 1256.34" stroke="#048ACD" stroke-opacity="0.2" stroke-miterlimit="10"/>
<path d="M179.173 1209.64C234.128 1259.17 323.454 1320.42 407.87 1375.54C451.499 1404.1 494.383 1429.57 537.657 1446.53C581.939 1463.95 623.904 1472.07 671.008 1477.67C685.957 1479.46 701.122 1480.43 716.583 1480.62C776.195 1481.31 832.698 1481.77 897.714 1498.07C961.965 1514.08 1021.74 1526.47 1072.29 1543.4C1084.5 1547.55 1095.92 1552.48 1106.81 1557.66C1137.77 1572.35 1164.78 1589.4 1197.29 1613.11C1217.14 1627.61 1239.92 1639.63 1264.16 1651.83C1328.07 1684.07 1379.89 1701.76 1432.92 1700.28C1440.18 1700.11 1447.33 1699.38 1454.53 1698.43C1490.14 1693.32 1528.05 1678.7 1564.78 1654.36C1609.18 1624.76 1651.06 1580.95 1685.33 1534.02C1716.31 1491.62 1744.47 1446.16 1777.84 1403.11C1834.36 1330.24 1907.34 1264.26 1985.71 1222.91C2030.75 1199.13 2076.66 1184.49 2123.33 1177.23C2207.76 1164.03 2294.36 1176.27 2382 1202.41C2430.41 1216.86 2476.99 1237.23 2520.51 1262.66" stroke="#048ACD" stroke-opacity="0.2" stroke-miterlimit="10"/>
<path d="M176.948 1224.92C228.279 1281.19 315.065 1344.69 399.853 1398.24C443.811 1425.81 487.678 1449.53 532.151 1463.91C577.551 1478.7 620.561 1483.76 668.147 1486.78C683.312 1487.74 698.438 1488.07 713.918 1487.54C773.458 1485.74 829.98 1483.41 895.072 1498.91C958.521 1513.99 1017.96 1528.59 1067.17 1549.34C1079.11 1554.39 1090.26 1560.24 1100.76 1566.48C1130.49 1583.97 1155.4 1605.06 1187.49 1629.2C1207.27 1644.13 1229.24 1656.81 1253.22 1668.34C1316.8 1699.13 1372.37 1711.14 1425.91 1704.78C1433.18 1703.88 1440.52 1702.55 1447.6 1700.91C1483.1 1692.67 1519.86 1675.54 1555.42 1649.77C1598.46 1618.48 1638.88 1574.51 1673.4 1528.61C1704.77 1486.85 1734.57 1442.16 1769.48 1400.19C1828.19 1328.86 1902.76 1264.59 1981.47 1224.82C2026.99 1201.74 2073.06 1188.08 2119.66 1181.61C2203.99 1169.94 2289.99 1183.22 2377.73 1209.55C2426 1224.03 2472.53 1244.12 2516.17 1269.02" stroke="#048ACD" stroke-opacity="0.2" stroke-miterlimit="10"/>
<path d="M174.748 1240.34C222.454 1303.36 306.608 1369.4 391.721 1421.11C436.033 1447.83 480.917 1469.58 526.474 1481.54C573.015 1493.83 617.023 1495.56 665.139 1496.27C680.38 1496.43 695.583 1495.96 711.106 1494.85C770.713 1490.53 827.115 1485.43 892.283 1500.13C955.068 1514.26 1013.92 1531.26 1061.9 1555.66C1073.57 1561.62 1084.28 1568.62 1094.56 1575.69C1123.54 1595.47 1146.57 1620.11 1177.54 1645.67C1196.83 1661.48 1218.55 1674.35 1242.21 1685.29C1305.53 1714.56 1364.75 1720.82 1418.81 1709.57C1426.18 1708.02 1433.48 1706.05 1440.52 1703.77C1475.91 1692.4 1511.59 1672.68 1545.91 1645.56C1587.5 1612.53 1626.63 1568.51 1661.46 1523.55C1693.29 1482.36 1724.77 1438.72 1761.03 1397.58C1822.18 1327.95 1898.08 1265.23 1977.19 1226.96C2023.22 1204.72 2069.35 1191.83 2115.95 1186.22C2200.11 1176.01 2285.58 1190.38 2373.34 1216.86C2421.48 1231.36 2467.96 1251.17 2511.81 1275.61" stroke="#048ACD" stroke-opacity="0.2" stroke-miterlimit="10"/>
<path d="M172.548 1255.77C216.687 1325.44 298.152 1394.12 383.647 1443.9C428.231 1469.71 474.295 1489.59 520.993 1499.06C568.733 1508.77 613.729 1507.54 662.327 1505.65C677.726 1505.07 693.005 1503.79 708.408 1502C768.001 1495.1 824.364 1487.29 889.528 1501.13C951.511 1514.34 1009.97 1533.62 1056.67 1561.76C1068.07 1568.63 1078.55 1576.46 1088.4 1584.68C1115.88 1607.8 1137.71 1635.03 1167.68 1661.84C1186.43 1678.61 1207.89 1691.67 1231.3 1701.94C1294.36 1729.68 1357.17 1730.29 1411.8 1714.06C1419.27 1711.85 1426.59 1709.16 1433.67 1706.3C1468.88 1691.75 1503.4 1669.52 1536.69 1640.94C1576.98 1606.15 1614.67 1562.1 1649.72 1518.03C1681.95 1477.48 1715.09 1434.76 1752.87 1394.55C1816.37 1326.57 1893.69 1265.45 1973.15 1228.77C2019.59 1207.31 2066.01 1195.23 2112.53 1190.42C2196.65 1181.65 2281.46 1197.14 2369.33 1223.81C2417.33 1238.34 2463.78 1258.01 2507.76 1281.93" stroke="#048ACD" stroke-opacity="0.2" stroke-miterlimit="10"/>
<path d="M170.266 1271.13C210.781 1347.54 289.672 1418.69 375.572 1466.68C420.51 1491.64 467.591 1509.55 515.43 1516.53C564.23 1523.69 610.306 1519.18 659.434 1514.97C674.99 1513.65 690.345 1511.57 705.71 1509.14C765.264 1499.53 821.556 1489.23 886.796 1502.27C948.114 1514.53 1006.44 1535.55 1051.32 1568.03C1062.41 1576.03 1072.74 1584.59 1082.2 1593.89C1108.59 1619.79 1128.82 1650.16 1157.82 1678.37C1176.01 1696.1 1197.19 1709.21 1220.37 1718.94C1283.11 1745.24 1349.66 1740.16 1404.72 1719C1412.29 1716.12 1419.58 1712.79 1426.62 1709.3C1461.71 1691.62 1495.09 1666.88 1527.2 1636.87C1566.05 1600.33 1602.53 1556.29 1637.75 1513.19C1670.37 1473.29 1705.3 1431.46 1744.47 1392.22C1810.38 1325.8 1889.14 1266.42 1968.87 1231.26C2015.87 1210.56 2062.37 1199.39 2108.82 1195.39C2192.84 1188.13 2277.12 1204.72 2364.99 1231.4C2412.85 1245.95 2459.26 1265.34 2503.44 1288.79" stroke="#048ACD" stroke-opacity="0.2" stroke-miterlimit="10"/>
<path d="M168.066 1286.55C205.095 1369.68 281.216 1443.41 367.498 1489.47C412.707 1513.52 460.911 1529.65 509.892 1534.13C559.89 1538.71 606.93 1531.09 656.483 1524.38C672.197 1522.31 687.571 1519.52 702.955 1516.36C762.518 1504.32 818.748 1491.17 883.983 1503.36C944.58 1514.74 1001.98 1538.65 1046.03 1574.21C1056.9 1583.04 1066.85 1592.68 1075.98 1602.96C1101.35 1631.69 1119.82 1665.1 1147.85 1694.71C1165.49 1713.39 1186.42 1726.69 1209.26 1735.7C1271.73 1760.47 1341.88 1749.73 1397.51 1723.6C1405.19 1720.06 1412.57 1716.07 1419.57 1711.94C1454.56 1691.13 1486.85 1663.8 1517.64 1632.38C1555.13 1594.16 1590.24 1550.01 1625.68 1507.8C1658.78 1468.6 1695.29 1427.62 1735.95 1389.19C1804.21 1324.42 1884.42 1266.78 1964.52 1232.98C2012.02 1213.12 2058.59 1202.73 2105.12 1199.64C2189.11 1193.82 2272.67 1211.62 2360.7 1238.4C2408.48 1252.9 2454.86 1272.15 2499.08 1295.02" stroke="#048ACD" stroke-opacity="0.2" stroke-miterlimit="10"/>
<path d="M165.924 1301.9C199.328 1391.76 272.736 1467.98 359.424 1512.25C404.987 1535.45 454.207 1549.61 504.329 1551.6C555.526 1553.6 603.531 1542.87 653.647 1533.62C669.437 1530.75 684.969 1527.21 700.258 1523.51C759.807 1508.9 815.94 1493.12 881.309 1504.42C941.185 1514.93 997.972 1541.09 1040.88 1580.37C1051.48 1590.1 1061.15 1600.65 1069.89 1612.01C1094.18 1643.51 1111.04 1680.08 1138.01 1711.02C1155.19 1730.72 1175.76 1744 1198.36 1752.49C1260.55 1775.6 1334.29 1759.19 1390.52 1728.23C1398.22 1723.97 1405.65 1719.4 1412.61 1714.63C1447.48 1690.7 1478.63 1660.86 1508.25 1628.01C1544.29 1588.05 1578.1 1543.85 1613.85 1502.58C1647.35 1464.02 1685.6 1424.02 1727.7 1386.47C1798.32 1323.34 1879.94 1267.31 1960.47 1235.15C2008.47 1216.13 2055.18 1206.57 2101.69 1204.19C2185.5 1199.84 2268.54 1218.73 2356.59 1245.66C2404.31 1260.23 2450.57 1279.16 2494.94 1301.64" stroke="#048ACD" stroke-opacity="0.2" stroke-miterlimit="10"/>
<path d="M163.722 1317.32C209.249 1464.71 350.268 1570.65 498.847 1569.12C551.104 1568.56 600.188 1554.57 650.834 1543C729.024 1525.08 796.5 1492.21 878.633 1505.47C952.394 1517.4 1021.79 1558.73 1063.67 1621.08C1086.8 1655.44 1102.13 1695.07 1128.1 1727.27C1197.18 1812.79 1330.07 1776.13 1405.64 1717.33C1482.6 1657.42 1536.39 1570.81 1602.02 1497.36C1692.91 1395.58 1827.15 1285.91 1956.25 1237.2C2091.97 1185.93 2215.4 1210.86 2352.32 1252.8C2399.91 1267.4 2446.06 1286.13 2490.69 1308.07" stroke="#048ACD" stroke-opacity="0.2" stroke-miterlimit="10"/>
</svg>
