<svg width="705" height="875" viewBox="0 0 705 875" fill="none" xmlns="http://www.w3.org/2000/svg">
<path d="M613.69 322.364L624.411 295.562L595.839 299.678L613.69 322.364ZM610.484 460.629C610.738 459.272 609.844 457.966 608.487 457.712C607.129 457.458 605.823 458.352 605.569 459.709L608.026 460.169L610.484 460.629ZM590.08 529.391L587.708 528.603C556.127 623.622 501.088 700.74 437.755 748.649C374.411 796.567 303.001 815.129 238.394 793.656L237.606 796.028L236.817 798.4C303.437 820.542 376.544 801.223 440.771 752.637C505.009 704.043 560.594 626.035 592.453 530.18L590.08 529.391ZM237.606 796.028L238.394 793.656C173.787 772.182 127.696 714.568 105.639 638.266C83.5854 561.976 85.6596 467.255 117.241 372.236L114.868 371.447L112.496 370.659C80.637 466.514 78.467 562.275 100.836 639.654C123.201 717.02 170.198 776.258 236.817 798.4L237.606 796.028ZM114.868 371.447L117.241 372.236C148.822 277.216 203.861 200.099 267.194 152.189C330.538 104.271 401.947 85.7097 466.554 107.183L467.343 104.81L468.131 102.438C401.512 80.2961 328.405 99.6156 264.178 148.201C199.94 196.795 144.355 274.803 112.496 370.659L114.868 371.447ZM467.343 104.81L466.554 107.183C541.487 132.088 591.534 205.644 608.017 300.515L610.48 300.087L612.944 299.659C596.271 203.702 545.415 128.125 468.131 102.438L467.343 104.81ZM608.026 460.169L605.569 459.709C601.303 482.486 595.374 505.537 587.708 528.603L590.08 529.391L592.453 530.18C600.19 506.9 606.175 483.63 610.484 460.629L608.026 460.169Z" fill="#3BBBF8" fill-opacity="0.21"/>
<path d="M603.267 566.303C563.612 685.616 487.083 776.993 403.223 818.087" stroke="#3BBBF8" stroke-opacity="0.21" stroke-width="4" stroke-linecap="round"/>
<path d="M79.5976 366.4C146.854 164.043 314.156 37.484 453.277 83.7229C502.594 100.114 541.75 136.02 568.755 184.56" stroke="#3BBBF8" stroke-opacity="0.21" stroke-width="4" stroke-linecap="round"/>
</svg>
