<svg width="74" height="90" viewBox="0 0 74 90" fill="none" xmlns="http://www.w3.org/2000/svg">
<path d="M26.1978 82.4248C9.74293 71.3804 0 53.2184 0 33.9556V18.4403L3.86217 17.8899C13.1426 16.6099 21.9669 12.5965 29.5975 6.48069L36.9531 0L44.3962 6.57345C51.3832 12.5965 59.9324 16.5233 69.2192 17.8899H74V33.9556C74 53.5832 64.2571 71.6525 47.8897 82.3382L37.5968 90L26.1978 82.4248Z" fill="#14C962"/>
<path d="M43.9551 7.07324L43.9609 7.07812C51.0439 13.184 59.7105 17.1648 69.1221 18.5498L69.1699 18.5566H73.333V33.9561C73.3329 53.3597 63.7029 71.2185 47.5254 81.7803L47.5078 81.791L47.4912 81.8037L37.5752 89.1846L26.5664 81.8691C10.2939 70.9457 0.667141 52.9905 0.666992 33.9561V19.0186L3.95215 18.5498L3.95312 18.5508C13.3648 17.2526 22.2999 13.1842 30.0146 7.00098L30.0264 6.99121L30.0381 6.98047L36.9512 0.888672L43.9551 7.07324Z" stroke="#048ACD" stroke-opacity="0.2" stroke-width="1.33333"/>
<path d="M37.0384 85L28.533 79.199C13.9496 68.9817 5 52.0402 5 34.082V22.4799C14.9291 21.0078 24.3289 16.6789 32.2929 9.86735L36.497 6L40.7071 9.86735C48.2209 16.6789 57.6207 21.0078 67.5498 22.4799H68V34.082C68 52.0402 59.5006 68.9817 44.4609 79.199L37.0384 85Z" fill="#00EC6A"/>
<path d="M40.2559 10.3584L40.2598 10.3613C47.8442 17.2368 57.3217 21.6124 67.333 23.1201V34.082C67.333 51.83 58.9343 68.5601 44.0859 78.6475L44.0684 78.6602L44.0508 78.6738L37.0107 84.1738L28.9082 78.6484C14.5051 68.554 5.66702 51.8175 5.66699 34.082V23.0498C15.5143 21.4797 24.8232 17.1337 32.7266 10.374L32.7441 10.3584L36.4961 6.90527L40.2559 10.3584Z" stroke="#048ACD" stroke-opacity="0.2" stroke-width="1.33333"/>
<path d="M35.178 57C33.7514 57 32.859 56.5443 31.8756 55.5406L21.0699 44.9988C19.6434 43.5456 19.6434 40.7254 21.0699 39.2722C22.4965 37.819 25.2647 37.819 26.6974 39.2722L34.6438 46.452L48.3026 33.0899C49.7353 31.6367 52.5035 31.6367 53.9301 33.0899C55.3566 34.5493 55.3566 37.3633 53.9301 38.8165L37.503 55.9963C37.0538 56.5443 36.0704 57 35.178 57Z" fill="black"/>
<path d="M51.1182 32.667C52.026 32.667 52.8902 32.9824 53.4541 33.5566C54.0201 34.1361 54.3329 35.0229 54.333 35.9551C54.333 36.8879 54.0196 37.7735 53.4541 38.3496L53.4482 38.3555L37.0215 55.5352L37.0039 55.5537L36.9873 55.5732C36.8474 55.744 36.5856 55.9401 36.2373 56.0938C35.8942 56.245 35.5166 56.333 35.1777 56.333C34.5395 56.333 34.058 56.2319 33.6377 56.04C33.2128 55.8461 32.809 55.5411 32.3516 55.0742L32.3467 55.0684L32.3408 55.0635L21.543 44.5293C20.9793 43.9534 20.6671 43.0682 20.667 42.1357C20.667 41.2018 20.9806 40.3151 21.5459 39.7393C22.1098 39.1649 22.9739 38.8486 23.8818 38.8486C24.7896 38.8487 25.6555 39.1649 26.2227 39.7402L26.2363 39.7539L26.25 39.7666L34.1973 46.9463L34.6621 47.3672L35.1104 46.9287L48.7686 33.5664L48.7773 33.5576C49.3446 32.9824 50.2105 32.6671 51.1182 32.667Z" stroke="#048ACD" stroke-opacity="0.2" stroke-width="1.33333"/>
</svg>
