<svg width="128" height="128" viewBox="0 0 128 128" fill="none" xmlns="http://www.w3.org/2000/svg">
<g opacity="0.7">
<rect x="30" y="26" width="68" height="68" rx="26" fill="#F7F7F8"/>
<rect x="30.5" y="26.5" width="67" height="67" rx="25.5" stroke="#162546" stroke-opacity="0.06"/>
</g>
<g filter="url(#filter0_ddi_601_5100)">
<g clip-path="url(#clip0_601_5100)">
<g clip-path="url(#clip1_601_5100)">
<g clip-path="url(#clip2_601_5100)">
<mask id="mask0_601_5100" style="mask-type:luminance" maskUnits="userSpaceOnUse" x="42" y="38" width="44" height="44">
<path d="M86 38H42V82H86V38Z" fill="white"/>
</mask>
<g mask="url(#mask0_601_5100)">
<path d="M64 82C76.1503 82 86 72.1503 86 60C86 47.8497 76.1503 38 64 38C51.8497 38 42 47.8497 42 60C42 72.1503 51.8497 82 64 82Z" fill="#627EEA"/>
<path d="M63.9971 43.5V55.6962L74.3053 60.3025L63.9971 43.5Z" fill="white" fill-opacity="0.602"/>
<path d="M63.9973 43.5L53.6875 60.3025L63.9973 55.6962V43.5Z" fill="white"/>
<path d="M63.9971 68.2057V76.4929L74.3123 62.2217L63.9971 68.2057Z" fill="white" fill-opacity="0.602"/>
<path d="M63.9973 76.4929V68.2043L53.6875 62.2217L63.9973 76.4929Z" fill="white"/>
<path d="M63.9971 66.2882L74.3053 60.3028L63.9971 55.6992V66.2882Z" fill="white" fill-opacity="0.2"/>
<path d="M53.6875 60.3028L63.9973 66.2882V55.6992L53.6875 60.3028Z" fill="white" fill-opacity="0.602"/>
</g>
</g>
</g>
</g>
</g>
<defs>
<filter id="filter0_ddi_601_5100" x="0" y="0" width="128" height="128" filterUnits="userSpaceOnUse" color-interpolation-filters="sRGB">
<feFlood flood-opacity="0" result="BackgroundImageFix"/>
<feColorMatrix in="SourceAlpha" type="matrix" values="0 0 0 0 0 0 0 0 0 0 0 0 0 0 0 0 0 0 127 0" result="hardAlpha"/>
<feOffset dy="2"/>
<feGaussianBlur stdDeviation="3"/>
<feComposite in2="hardAlpha" operator="out"/>
<feColorMatrix type="matrix" values="0 0 0 0 0 0 0 0 0 0 0 0 0 0 0 0 0 0 0.05 0"/>
<feBlend mode="normal" in2="BackgroundImageFix" result="effect1_dropShadow_601_5100"/>
<feColorMatrix in="SourceAlpha" type="matrix" values="0 0 0 0 0 0 0 0 0 0 0 0 0 0 0 0 0 0 127 0" result="hardAlpha"/>
<feOffset dy="4"/>
<feGaussianBlur stdDeviation="21"/>
<feComposite in2="hardAlpha" operator="out"/>
<feColorMatrix type="matrix" values="0 0 0 0 0 0 0 0 0 0 0 0 0 0 0 0 0 0 0.06 0"/>
<feBlend mode="normal" in2="effect1_dropShadow_601_5100" result="effect2_dropShadow_601_5100"/>
<feBlend mode="normal" in="SourceGraphic" in2="effect2_dropShadow_601_5100" result="shape"/>
<feColorMatrix in="SourceAlpha" type="matrix" values="0 0 0 0 0 0 0 0 0 0 0 0 0 0 0 0 0 0 127 0" result="hardAlpha"/>
<feMorphology radius="1" operator="erode" in="SourceAlpha" result="effect3_innerShadow_601_5100"/>
<feOffset/>
<feComposite in2="hardAlpha" operator="arithmetic" k2="-1" k3="1"/>
<feColorMatrix type="matrix" values="0 0 0 0 0 0 0 0 0 0 0 0 0 0 0 0 0 0 0.16 0"/>
<feBlend mode="normal" in2="shape" result="effect3_innerShadow_601_5100"/>
</filter>
<clipPath id="clip0_601_5100">
<rect x="42" y="38" width="44" height="44" rx="22" fill="white"/>
</clipPath>
<clipPath id="clip1_601_5100">
<rect width="44" height="44" fill="white" transform="translate(42 38)"/>
</clipPath>
<clipPath id="clip2_601_5100">
<rect width="44" height="44" fill="white" transform="translate(42 38)"/>
</clipPath>
</defs>
</svg>
